<svg width="268" height="291" viewBox="0 0 268 291" fill="none" xmlns="http://www.w3.org/2000/svg">
<path d="M219.454 239.243C221.686 238.196 224.195 237.893 226.612 238.377C227.909 238.589 229.267 238.983 230.145 239.951C231.024 240.92 231.2 242.64 230.182 243.476C229.524 243.922 228.73 244.122 227.939 244.039C226.042 244.039 223.945 243.682 222.436 244.82C221.57 245.468 221 246.546 219.97 246.867C219.451 246.988 218.907 246.934 218.422 246.716C217.937 246.497 217.537 246.124 217.285 245.656C216.795 244.709 216.686 243.61 216.982 242.586C217.109 241.876 217.398 241.205 217.827 240.625C218.256 240.046 218.813 239.573 219.454 239.243Z" fill="#FF725E"/>
<path d="M214.436 229.627C215.77 231.522 218.358 230.898 219.558 229.736C220.758 228.573 221.261 226.896 221.721 225.297C222.776 221.633 223.842 217.794 223.061 214.064C222.866 212.943 222.369 211.896 221.624 211.036C221.244 210.609 220.759 210.29 220.216 210.109C219.674 209.928 219.094 209.893 218.533 210.007C217.224 210.352 216.418 211.63 215.83 212.841C214.102 216.431 213.197 220.362 213.182 224.346C213.182 226.199 213.394 228.137 214.436 229.669" fill="#FF725E"/>
<path d="M210.782 232.352C211.467 231.459 211.923 230.412 212.111 229.303C212.299 228.194 212.213 227.056 211.861 225.987C211.128 223.86 209.824 221.974 208.091 220.537C206.12 218.785 203.827 217.434 201.339 216.559C200.378 216.171 199.344 215.995 198.309 216.044C197.791 216.073 197.289 216.229 196.845 216.497C196.401 216.765 196.03 217.138 195.764 217.582C195.048 218.939 195.764 220.58 196.467 221.918C197.764 224.281 199.247 226.536 200.903 228.664C202.23 230.378 203.751 232.067 205.782 232.842C207.812 233.617 209.909 233.52 210.982 232.122" fill="#FF725E"/>
<path d="M214.352 258.276C214.418 257.993 214.457 257.705 214.467 257.416C214.533 256.81 214.606 255.999 214.697 255.06C214.813 253.899 214.991 252.745 215.23 251.602C215.538 250.212 215.958 248.849 216.485 247.527C217.002 246.206 217.704 244.964 218.57 243.839C219.275 242.922 220.175 242.173 221.206 241.647C221.904 241.301 222.653 241.068 223.424 240.957C223.715 240.946 224.003 240.906 224.285 240.836C223.993 240.804 223.698 240.804 223.406 240.836C222.607 240.9 221.825 241.105 221.097 241.441C220.012 241.951 219.059 242.705 218.315 243.645C217.415 244.788 216.688 246.057 216.158 247.412C215.62 248.753 215.202 250.139 214.909 251.554C214.686 252.71 214.532 253.879 214.448 255.054C214.37 256.053 214.345 256.871 214.333 257.422C214.306 257.706 214.312 257.993 214.352 258.276V258.276Z" fill="#263238"/>
<path d="M214.509 256.465C214.527 256.332 214.527 256.198 214.509 256.065V254.939C214.509 253.946 214.509 252.517 214.558 250.7C214.648 247.145 214.951 243.324 215.545 237.935C216.103 232.866 216.854 226.968 217.648 223.135C217.818 222.263 217.988 221.476 218.151 220.792C218.315 220.107 218.436 219.508 218.564 219.03C218.691 218.551 218.758 218.206 218.83 217.915C218.863 217.784 218.888 217.65 218.903 217.516C218.842 217.635 218.795 217.761 218.764 217.891C218.673 218.182 218.564 218.545 218.43 218.993C218.297 219.441 218.127 220.059 217.958 220.743C217.788 221.428 217.588 222.209 217.4 223.081C216.429 227.621 215.698 232.209 215.212 236.827C214.606 242.228 214.351 247.121 214.333 250.706C214.333 252.486 214.333 253.928 214.394 254.945C214.394 255.411 214.442 255.793 214.461 256.09C214.466 256.216 214.482 256.341 214.509 256.465Z" fill="#263238"/>
<path d="M214.533 246.982C214.567 246.579 214.567 246.174 214.533 245.771C214.464 244.685 214.341 243.604 214.164 242.531C213.904 240.938 213.552 239.361 213.109 237.808C212.596 235.896 211.936 234.028 211.133 232.218C209.762 228.883 207.797 225.824 205.333 223.19C204.904 222.739 204.446 222.317 203.964 221.924C203.758 221.742 203.57 221.567 203.358 221.427L202.83 221.064C202.513 220.821 202.174 220.606 201.818 220.422C202.982 221.331 204.085 222.314 205.121 223.365C207.51 226.018 209.425 229.062 210.782 232.364C211.568 234.162 212.232 236.011 212.77 237.899C213.226 239.436 213.6 240.996 213.891 242.573C214.139 243.924 214.285 244.996 214.37 245.783C214.395 246.186 214.449 246.587 214.533 246.982V246.982Z" fill="#263238"/>
<path d="M205.358 263.713L206.309 276.733H223.055L224 263.713H205.358Z" fill="#263238"/>
<path d="M226.006 258.578H203.745V263.713H226.006V258.578Z" fill="#263238"/>
<path d="M203.745 276.236V277.653H204.788H225.63V276.236H203.745Z" fill="#455A64"/>
<path d="M205.812 280.16L204.788 277.653H224.836L223.636 280.16H205.812Z" fill="#455A64"/>
<path d="M223.697 267.964C223.697 267.964 223.697 268.013 223.618 268.086L223.37 268.419L222.394 269.666L222.352 269.721L222.309 269.66L219.915 266.354H220.061L217.697 269.69L217.624 269.793L217.539 269.696L214.745 266.366H214.903L214.751 266.56L212.248 269.69L212.17 269.799L212.091 269.69C211.242 268.479 210.448 267.365 209.727 266.354H209.867L206.964 269.66L206.909 269.721L206.867 269.654C206.485 269.012 206.182 268.497 205.958 268.128L205.727 267.722C205.697 267.677 205.672 267.628 205.655 267.577C205.655 267.577 205.691 267.613 205.752 267.704L206.012 268.098L206.964 269.593H206.873L209.733 266.245L209.806 266.16L209.873 266.251L212.255 269.575H212.091L214.606 266.444L214.764 266.251L214.842 266.148L214.921 266.245L217.715 269.581H217.558L219.939 266.257L220.006 266.16L220.079 266.257C221.018 267.607 221.824 268.752 222.424 269.605H222.333L223.352 268.394L223.624 268.079L223.697 267.964Z" fill="#E0E0E0"/>
<path d="M224.236 263.623C224.236 263.683 220.042 263.732 214.867 263.732C209.691 263.732 205.497 263.683 205.497 263.623C205.497 263.562 209.691 263.52 214.867 263.52C220.042 263.52 224.236 263.568 224.236 263.623Z" fill="#455A64"/>
<path d="M225.085 277.799C225.085 277.853 220.521 277.902 214.903 277.902C209.285 277.902 204.721 277.853 204.721 277.799C204.721 277.744 209.279 277.69 214.903 277.69C220.527 277.69 225.085 277.738 225.085 277.799Z" fill="#263238"/>
<path d="M59.9394 236.258C59.8909 236.312 59.5091 236.082 59.0849 235.743C58.6606 235.404 58.3515 235.083 58.4 235.022C58.4485 234.962 58.8243 235.198 59.2485 235.537C59.6728 235.876 59.9818 236.197 59.9394 236.258Z" fill="#263238"/>
<path d="M71.5757 218.914C71.7407 217.299 71.6072 215.667 71.1817 214.1C70.6727 212.556 69.4848 211.145 67.8969 210.812C66.0787 210.437 64.2242 211.581 63.206 213.131C62.1878 214.682 61.8424 216.559 61.5393 218.381C59.4716 230.976 58.71 243.75 59.2666 256.501L66.6848 257.543C69.9151 244.239 70.9696 232.606 71.5757 218.914Z" fill="#455A64"/>
<path d="M66.8364 210.733L66.8 210.855L66.6788 211.188L66.1818 212.471C66.0788 212.75 65.9394 213.077 65.8303 213.398L65.4727 214.518L65.0545 215.808L64.6727 217.279C64.05 219.71 63.5704 222.175 63.2364 224.661C62.8364 227.447 62.5758 230.535 62.3636 233.781C61.9879 240.278 61.9273 246.177 61.7576 250.44C61.6788 252.577 61.6061 254.303 61.5273 255.49C61.4848 256.096 61.4545 256.525 61.4303 256.865C61.4303 257.004 61.4303 257.125 61.4303 257.216C61.4303 257.307 61.4303 257.337 61.4303 257.337C61.4303 257.337 61.4303 257.301 61.4303 257.216C61.4303 257.131 61.4303 257.004 61.4303 256.859C61.4303 256.525 61.4303 256.065 61.4727 255.484C61.5212 254.273 61.5636 252.571 61.6182 250.434C61.7394 246.195 61.7697 240.272 62.1515 233.769C62.3576 230.517 62.6303 227.422 63.0424 224.625C63.39 222.146 63.89 219.691 64.5394 217.273L64.9394 215.802C65.097 215.35 65.2424 214.92 65.3758 214.512L65.7636 213.392C65.8788 213.053 66.0242 212.75 66.1333 212.471L66.6788 211.212C66.7354 211.079 66.7838 210.97 66.8242 210.885C66.8199 210.834 66.824 210.783 66.8364 210.733V210.733Z" fill="#263238"/>
<path d="M67.5212 210.764C67.9078 211.22 68.2151 211.738 68.4303 212.296C68.9975 213.827 69.227 215.463 69.103 217.092C68.9091 221.191 68.5394 226.835 68.0546 233.072C67.5697 239.31 67.0182 244.941 66.5818 249.017C66.3576 251.051 66.1697 252.698 66.0303 253.861C65.9576 254.412 65.903 254.848 65.8606 255.169L65.8121 255.508C65.8149 255.546 65.8149 255.585 65.8121 255.623C65.8121 255.623 65.8121 255.587 65.8121 255.508C65.8121 255.429 65.8121 255.302 65.8121 255.163C65.8121 254.842 65.8788 254.406 65.9273 253.849C66.0424 252.686 66.2 251.045 66.3939 249.005C66.7818 244.923 67.297 239.316 67.7879 233.054C68.2788 226.793 68.6727 221.179 68.9152 217.092C69.0471 215.482 68.8407 213.863 68.3091 212.338C68.0936 211.791 67.8299 211.264 67.5212 210.764V210.764Z" fill="#263238"/>
<path d="M72.6666 229.954C72.1799 229.918 71.7035 229.795 71.2606 229.59C70.7898 229.468 70.3445 229.263 69.9454 228.985C70.4328 229.017 70.9098 229.14 71.3515 229.348C71.8228 229.469 72.2683 229.674 72.6666 229.954V229.954Z" fill="#263238"/>
<path d="M73.5635 222.396C73.1616 222.717 72.7089 222.969 72.2241 223.141C71.7737 223.39 71.2837 223.56 70.7756 223.644C71.6255 223.07 72.5688 222.647 73.5635 222.396V222.396Z" fill="#263238"/>
<path d="M73.0969 216.226C72.3643 216.358 71.6104 216.306 70.903 216.074C71.2615 215.972 71.639 215.953 72.006 216.02C72.3807 216.003 72.7541 216.074 73.0969 216.226Z" fill="#263238"/>
<path d="M65.4363 212.277C65.3757 212.314 65.0484 211.908 64.7151 211.375C64.4725 211.067 64.3007 210.709 64.212 210.328C64.2726 210.291 64.5999 210.691 64.9393 211.23C65.2787 211.769 65.5151 212.235 65.4363 212.277Z" fill="#263238"/>
<path d="M62.9091 216.008C62.5716 216.129 62.2097 216.166 61.8545 216.117C61.4974 216.151 61.1373 216.097 60.806 215.959C61.1435 215.838 61.5054 215.801 61.8606 215.85C62.2177 215.816 62.5778 215.87 62.9091 216.008V216.008Z" fill="#263238"/>
<path d="M61.0908 223.45C60.7029 223.435 60.3236 223.331 59.9817 223.147C59.6076 223.041 59.2618 222.853 58.9696 222.596C59.3575 222.612 59.7368 222.715 60.0787 222.899C60.4529 223.005 60.7986 223.194 61.0908 223.45V223.45Z" fill="#263238"/>
<path d="M60.8969 229.742C60.8969 229.814 60.4909 229.966 59.9515 230.075C59.4121 230.184 58.9697 230.226 58.9515 230.153C58.9333 230.081 59.3636 229.929 59.8969 229.82C60.2186 229.712 60.5622 229.685 60.8969 229.742Z" fill="#263238"/>
<path d="M60.0605 240.012C60.0605 240.085 59.6242 240.224 59.0545 240.327C58.7141 240.428 58.3542 240.445 58.006 240.375C58.3117 240.193 58.6567 240.087 59.012 240.066C59.3516 239.962 59.7119 239.943 60.0605 240.012Z" fill="#263238"/>
<path d="M59.4545 245.68C59.4909 245.741 59.1151 246.007 58.6181 246.286C58.1212 246.564 57.6909 246.709 57.6606 246.643C57.6302 246.576 57.9999 246.316 58.4969 246.037C58.9939 245.759 59.4545 245.613 59.4545 245.68Z" fill="#263238"/>
<path d="M64.103 252.111C64.0424 252.147 63.7152 251.699 63.3758 251.106C63.1303 250.766 62.9608 250.378 62.8788 249.967C62.9394 249.931 63.2667 250.379 63.6061 250.973C63.8515 251.312 64.021 251.7 64.103 252.111V252.111Z" fill="#263238"/>
<path d="M65.4425 241.423C65.491 241.471 65.1273 241.913 64.6303 242.404C64.1334 242.894 63.6849 243.246 63.6303 243.191C63.5758 243.137 63.9455 242.701 64.4425 242.21C64.9394 241.72 65.3879 241.368 65.4425 241.423Z" fill="#263238"/>
<path d="M65.1455 235.809C65.0909 235.864 64.7576 235.585 64.3939 235.204C64.0303 234.822 63.7879 234.453 63.8364 234.405C63.8848 234.356 64.2242 234.629 64.5879 235.01C64.9515 235.392 65.2 235.761 65.1455 235.809Z" fill="#263238"/>
<path d="M66.0666 228.646C66.1212 228.694 65.8182 229.124 65.3879 229.596C64.9576 230.069 64.5697 230.426 64.5151 230.378C64.4606 230.329 64.7636 229.899 65.1879 229.421C65.6121 228.942 66.0121 228.597 66.0666 228.646Z" fill="#263238"/>
<path d="M66.5817 223.45C66.5272 223.505 66.109 223.171 65.6363 222.711C65.1636 222.251 64.8302 221.833 64.8787 221.779C64.9272 221.724 65.3514 222.057 65.8242 222.524C66.2969 222.99 66.6302 223.396 66.5817 223.45Z" fill="#263238"/>
<path d="M67.6 216.413C67.5198 216.796 67.3563 217.155 67.1212 217.467C66.8 218.012 66.4849 218.424 66.4243 218.388C66.3636 218.351 66.5697 217.879 66.897 217.334C67.2242 216.789 67.5333 216.377 67.6 216.413Z" fill="#263238"/>
<path d="M69.509 209.898C69.5757 209.934 69.3878 210.406 69.0908 210.951C68.7938 211.496 68.4848 211.914 68.4363 211.884C68.494 211.506 68.6369 211.145 68.8545 210.83C69.1514 210.279 69.4423 209.867 69.509 209.898Z" fill="#263238"/>
<path d="M71.6788 212.859C71.7091 212.925 71.4121 213.131 71.0121 213.325C70.6121 213.519 70.2667 213.616 70.2364 213.549C70.2061 213.483 70.5031 213.277 70.9031 213.083C71.3031 212.889 71.6485 212.792 71.6788 212.859Z" fill="#263238"/>
<path d="M71.7273 236.258C70.7206 236.184 69.7672 235.777 69.0182 235.101C69.4901 235.244 69.9468 235.432 70.3818 235.664C70.8494 235.815 71.3003 236.014 71.7273 236.258V236.258Z" fill="#263238"/>
<path d="M70.8424 241.211C70.8424 241.284 70.4121 241.429 69.8424 241.538C69.5038 241.646 69.1436 241.669 68.7939 241.605C69.0971 241.419 69.4396 241.307 69.7939 241.278C70.3636 241.169 70.8303 241.138 70.8424 241.211Z" fill="#263238"/>
<path d="M69.7575 249.707C69.7151 249.767 69.1514 249.374 68.6302 248.72C68.2832 248.346 68.0389 247.89 67.9211 247.394C68.2598 247.754 68.5661 248.143 68.8363 248.556C69.1781 248.911 69.4865 249.296 69.7575 249.707V249.707Z" fill="#263238"/>
<path d="M57.8242 253.595C57.7757 253.54 58.0787 253.201 58.4969 252.844C58.9151 252.486 59.2969 252.238 59.3454 252.299C59.3939 252.359 59.0909 252.686 58.6727 253.05C58.2545 253.413 57.8727 253.649 57.8242 253.595Z" fill="#263238"/>
<path d="M54.3939 235.052C53.909 233.545 53.006 231.789 51.4242 231.764C50.9528 231.79 50.4971 231.942 50.1047 232.204C49.7122 232.466 49.3976 232.829 49.1939 233.254C48.7585 234.094 48.5496 235.033 48.5878 235.979C48.7831 242.691 49.9278 249.341 51.9878 255.732H57.7878C57.7176 248.706 56.573 241.733 54.3939 235.052V235.052Z" fill="#455A64"/>
<path d="M43.9151 225.563C43.6282 224.151 42.8748 222.876 41.7758 221.942C40.6768 221.009 39.2958 220.471 37.8545 220.416C35.2909 220.864 34.2969 223.383 33.9939 225.963C33.6909 228.543 34.4909 231.11 35.2848 233.587C37.8222 241.532 40.3636 249.479 42.909 257.428L50.1212 256.641C47.8666 245.995 46.5575 236.124 43.9151 225.563Z" fill="#455A64"/>
<path d="M51.4242 231.764C51.2368 232.022 51.0725 232.295 50.9333 232.582C50.6344 233.401 50.5407 234.28 50.6606 235.143C50.7697 236.245 50.8969 237.565 51.0848 239.019C51.2727 240.472 51.5333 242.047 51.8606 243.73C52.5151 247.061 53.2545 250.04 53.7212 252.208C53.9575 253.292 54.1394 254.176 54.2485 254.787C54.2969 255.072 54.3394 255.302 54.3697 255.496C54.4 255.69 54.406 255.744 54.3697 255.744C54.3382 255.668 54.3138 255.589 54.2969 255.508L54.1272 254.812C53.9697 254.164 53.7636 253.298 53.5212 252.25C53.006 250.082 52.2363 247.109 51.5818 243.772C51.2545 242.101 50.9757 240.502 50.8242 239.037C50.7272 238.31 50.6666 237.608 50.606 236.96C50.5454 236.312 50.4848 235.7 50.4545 235.143C50.3509 234.255 50.4761 233.354 50.8182 232.527C50.9624 232.232 51.1692 231.972 51.4242 231.764V231.764Z" fill="#263238"/>
<path d="M37.9879 220.21C37.6666 220.576 37.3747 220.967 37.1152 221.379C36.4514 222.53 36.0751 223.824 36.0182 225.152C35.9881 227.12 36.2892 229.079 36.9091 230.947C37.5152 233.09 38.2364 235.446 38.9697 237.911C40.4061 242.852 41.7031 247.321 42.6546 250.585L43.7455 254.436C43.8667 254.872 43.9576 255.217 44.0303 255.484C44.07 255.604 44.0964 255.728 44.1091 255.853C44.0535 255.741 44.0089 255.623 43.9758 255.502C43.897 255.236 43.7819 254.897 43.6485 254.461C43.3637 253.534 42.9637 252.232 42.4788 250.639L38.7152 237.983C37.9879 235.507 37.3031 233.139 36.6728 231.007C36.0554 229.113 35.7704 227.125 35.8303 225.133C35.9084 223.781 36.3252 222.469 37.0425 221.319C37.2942 220.899 37.6137 220.525 37.9879 220.21Z" fill="#263238"/>
<path d="M48.5756 255.872C48.5146 255.76 48.46 255.644 48.412 255.526C48.3211 255.29 48.1696 254.957 48.0059 254.509C47.6605 253.625 47.218 252.323 46.7938 250.688C46.3696 249.053 45.8847 247.055 45.4483 244.875C45.012 242.695 44.5756 240.254 44.0908 237.711C43.6059 235.168 43.0362 232.776 42.3877 230.638C41.8251 228.738 41.1222 226.882 40.2847 225.085C39.7154 223.876 39.0654 222.707 38.3393 221.585C38.0908 221.185 37.8665 220.889 37.7332 220.683C37.6573 220.58 37.5904 220.47 37.5332 220.356C37.6221 220.446 37.7032 220.543 37.7756 220.646C37.9271 220.852 38.1635 221.131 38.4241 221.53C39.1906 222.634 39.8694 223.797 40.4544 225.006C41.3237 226.798 42.0473 228.657 42.618 230.565C43.3025 232.9 43.8649 235.269 44.3029 237.662C44.7817 240.2 45.2302 242.622 45.6423 244.832C46.0544 247.043 46.4908 248.998 46.9271 250.64C47.3635 252.281 47.7696 253.583 48.0847 254.473C48.2302 254.927 48.3696 255.266 48.4483 255.502C48.5045 255.62 48.5472 255.744 48.5756 255.872V255.872Z" fill="#263238"/>
<path d="M35.4424 232.4C35.4424 232.467 35.0667 232.624 34.5636 232.745C34.0606 232.866 33.6424 232.909 33.6303 232.836C33.6182 232.763 34 232.612 34.503 232.491C35.006 232.37 35.4242 232.327 35.4424 232.4Z" fill="#263238"/>
<path d="M34.6788 227.483C34.2848 227.594 33.8753 227.639 33.4666 227.616C33.0635 227.673 32.6536 227.661 32.2545 227.58C32.6319 227.4 33.0495 227.321 33.4666 227.35C33.8754 227.29 34.2927 227.336 34.6788 227.483Z" fill="#263238"/>
<path d="M35.491 222.99C35.4425 223.05 35.0486 222.796 34.6183 222.427C34.188 222.057 33.8668 221.712 33.9152 221.658C33.9637 221.603 34.3516 221.851 34.788 222.221C35.2243 222.59 35.5395 222.935 35.491 222.99Z" fill="#263238"/>
<path d="M37.6908 218.836C37.7636 218.836 37.7393 219.205 37.7333 219.623C37.7272 220.041 37.7333 220.398 37.6424 220.41C37.5515 220.422 37.4545 220.071 37.4666 219.617C37.4787 219.163 37.6363 218.817 37.6908 218.836Z" fill="#263238"/>
<path d="M42.1818 220.792C42.2424 220.834 42.0667 221.191 41.7879 221.585C41.5091 221.979 41.2364 222.269 41.1818 222.227C41.1273 222.184 41.297 221.833 41.5697 221.434C41.8424 221.034 42.1212 220.749 42.1818 220.792Z" fill="#263238"/>
<path d="M45.097 225.872C45.097 225.945 44.7516 226.157 44.2667 226.357C43.7819 226.557 43.3576 226.659 43.3334 226.593C43.3092 226.526 43.6789 226.308 44.1637 226.114C44.6486 225.921 45.0728 225.787 45.097 225.872Z" fill="#263238"/>
<path d="M46.8666 231.062C46.5459 231.34 46.1489 231.515 45.7272 231.564C45.3233 231.695 44.8907 231.71 44.4788 231.607C44.8676 231.453 45.2752 231.351 45.6909 231.304C46.0715 231.176 46.4663 231.095 46.8666 231.062V231.062Z" fill="#263238"/>
<path d="M38.7455 229.584C38.6788 229.584 38.7455 229.203 38.8607 228.779C38.9758 228.355 39.1576 228.034 39.2243 228.058C39.291 228.083 39.2243 228.44 39.1091 228.864C38.994 229.288 38.8485 229.609 38.7455 229.584Z" fill="#263238"/>
<path d="M39.8788 236.124C39.9033 235.743 40.0153 235.372 40.2061 235.04C40.4545 234.471 40.7091 234.035 40.7758 234.065C40.7512 234.447 40.6393 234.818 40.4485 235.149C40.2 235.719 39.9455 236.167 39.8788 236.124Z" fill="#263238"/>
<path d="M37.0788 237.917C36.7216 237.908 36.3696 237.83 36.0424 237.687C35.4909 237.511 35.0424 237.354 35.0606 237.281C35.4213 237.235 35.7879 237.287 36.1212 237.432C36.6848 237.608 37.1091 237.85 37.0788 237.917Z" fill="#263238"/>
<path d="M38.6909 243.246C38.7333 243.306 38.4242 243.597 38.0061 243.9C37.5879 244.202 37.2 244.396 37.1576 244.342C37.1152 244.287 37.4242 243.984 37.8485 243.682C38.2727 243.379 38.6485 243.185 38.6909 243.246Z" fill="#263238"/>
<path d="M39.9878 248.562C39.9878 248.629 39.6242 248.786 39.1333 248.902C38.6424 249.017 38.2363 249.059 38.2182 248.992C38.2 248.926 38.5818 248.768 39.0727 248.647C39.5636 248.526 39.9697 248.49 39.9878 248.562Z" fill="#263238"/>
<path d="M47.0121 235.507C47.0485 235.567 46.7212 235.828 46.2485 236.003C45.7758 236.179 45.3515 236.203 45.3394 236.136C45.3273 236.07 45.703 235.931 46.1515 235.755C46.6 235.579 46.9758 235.44 47.0121 235.507Z" fill="#263238"/>
<path d="M48.0121 243.772C47.9818 243.839 47.5939 243.724 47.1454 243.512C46.697 243.3 46.3576 243.076 46.3879 243.009C46.4182 242.943 46.8121 243.064 47.2606 243.27C47.7091 243.476 48.0485 243.706 48.0121 243.772Z" fill="#263238"/>
<path d="M49.7878 249.695C49.3864 249.675 48.9939 249.569 48.6363 249.386C48.0302 249.15 47.5636 248.902 47.5878 248.829C47.9872 248.849 48.3777 248.955 48.7333 249.138C49.3393 249.374 49.8121 249.622 49.7878 249.695Z" fill="#263238"/>
<path d="M40.2727 254.333C40.2364 254.267 40.7091 253.952 41.2545 253.522C41.8 253.092 42.2242 252.704 42.2788 252.759C42.3333 252.813 41.9879 253.28 41.4182 253.728C41.1012 254.034 40.7041 254.244 40.2727 254.333V254.333Z" fill="#263238"/>
<path d="M44.9514 251.306C44.8787 251.306 44.7757 250.918 44.5939 250.458C44.412 249.998 44.2302 249.628 44.2908 249.586C44.3514 249.543 44.6545 249.858 44.8423 250.361C45.0302 250.864 45.0242 251.306 44.9514 251.306Z" fill="#263238"/>
<path d="M43.697 244.202C43.6546 244.263 43.3515 244.118 43.0182 243.881C42.6849 243.645 42.4546 243.403 42.497 243.342C42.5394 243.282 42.8424 243.427 43.1758 243.663C43.5091 243.9 43.7576 244.142 43.697 244.202Z" fill="#263238"/>
<path d="M54.606 233.048C54.6484 233.109 54.3514 233.399 53.9454 233.696C53.5393 233.993 53.1757 234.193 53.1333 234.132C53.0908 234.071 53.3817 233.787 53.7878 233.484C54.1939 233.181 54.606 232.988 54.606 233.048Z" fill="#263238"/>
<path d="M56.2727 237.541C56.2727 237.614 55.8182 237.711 55.2485 237.65C54.6788 237.59 54.2485 237.396 54.2667 237.329C54.2849 237.263 54.7333 237.329 55.2788 237.384C55.8242 237.438 56.2667 237.469 56.2727 237.541Z" fill="#263238"/>
<path d="M49.2 238.553C49.2 238.619 48.7939 238.771 48.2364 238.807C47.6788 238.843 47.2424 238.752 47.2485 238.68C47.2545 238.607 47.6909 238.583 48.2242 238.547C48.7576 238.51 49.1879 238.48 49.2 238.553Z" fill="#263238"/>
<path d="M49.8122 234.302C49.8122 234.374 49.3758 234.386 48.9031 234.162C48.4303 233.938 48.1576 233.617 48.2061 233.557C48.2546 233.496 48.5819 233.726 49.0122 233.92C49.4425 234.114 49.8182 234.229 49.8122 234.302Z" fill="#263238"/>
<path d="M56.8787 242.368C56.8424 242.428 56.3999 242.222 55.8909 241.901C55.3818 241.58 55.006 241.296 55.0484 241.211C55.0909 241.126 55.5272 241.362 56.0363 241.677C56.5454 241.992 56.9212 242.307 56.8787 242.368Z" fill="#263238"/>
<path d="M74.1333 254.975H36.406V261.654H74.1333V254.975Z" fill="#FF725E"/>
<path d="M39.2242 260.334L43.8121 280.3H66.297L71.3151 260.334H39.2242Z" fill="#FF725E"/>
<path d="M74.1151 261.667C74.1151 261.739 65.6303 261.8 55.1091 261.8C44.5879 261.8 36.103 261.739 36.103 261.667C36.103 261.594 44.5879 261.533 55.1091 261.533C65.6303 261.533 74.1151 261.6 74.1151 261.667Z" fill="#263238"/>
<path d="M53.1332 238.698C53.0726 238.734 52.812 238.438 52.5575 238.026C52.3029 237.614 52.1454 237.251 52.206 237.214C52.2666 237.178 52.5272 237.475 52.7817 237.886C53.0363 238.298 53.1938 238.655 53.1332 238.698Z" fill="#263238"/>
<path d="M53.1454 244.069C53.1273 243.721 53.196 243.373 53.3454 243.058C53.5212 242.519 53.7272 242.101 53.7939 242.125C53.8126 242.476 53.7438 242.825 53.5939 243.143C53.3939 243.676 53.2182 244.093 53.1454 244.069Z" fill="#263238"/>
<path d="M54.9878 249.713C54.9212 249.749 54.6424 249.295 54.3818 248.708C54.1727 248.367 54.0403 247.985 53.9939 247.587C54.0606 247.551 54.3394 248.005 54.6 248.593C54.8091 248.934 54.9414 249.316 54.9878 249.713V249.713Z" fill="#263238"/>
<path d="M51.006 254.255C50.9514 254.206 51.1757 253.861 51.509 253.473C51.8423 253.086 52.1514 252.819 52.212 252.868C52.2726 252.916 52.0423 253.268 51.709 253.649C51.3757 254.031 51.0605 254.333 51.006 254.255Z" fill="#263238"/>
<path d="M50.1697 246.013C50.1697 246.086 49.7939 246.08 49.3576 246.013C48.9212 245.946 48.5818 245.819 48.5939 245.747C48.6061 245.674 48.9697 245.68 49.4 245.747C49.8303 245.813 50.1818 245.94 50.1697 246.013Z" fill="#263238"/>
<path d="M181.424 209.062H91.9576V280.348H181.424V209.062Z" fill="#E0E0E0"/>
<g opacity="0.3">
<path opacity="0.3" d="M98.4728 209.207C109.006 212.962 120.624 213.767 131.927 213.979C134.273 214.021 136.642 214.015 138.909 214.585C141.176 215.154 143.364 216.444 144.527 218.472C145.794 220.683 145.661 223.45 144.939 225.89C144.218 228.331 142.976 230.589 142.079 232.969C140.491 237.18 140.005 241.726 140.667 246.176C140.871 248.072 141.509 249.896 142.533 251.505C143.052 252.305 143.751 252.972 144.574 253.454C145.397 253.935 146.321 254.218 147.273 254.279C150.673 254.327 153 250.991 154.685 248.035C161.6 235.924 169.079 222.178 173.503 208.959L98.4728 209.207Z" fill="black"/>
</g>
<path d="M122.442 279.966C122.351 279.966 122.285 264.167 122.285 244.681C122.285 225.194 122.351 209.389 122.442 209.389C122.533 209.389 122.6 225.188 122.6 244.681C122.6 264.174 122.527 279.966 122.442 279.966Z" fill="#455A64"/>
<path d="M159.103 156.379C158.836 154.598 153.515 148.724 153.515 148.724C153.515 148.724 150.861 138.061 150.061 134.918C149.794 134.009 149.405 133.141 148.903 132.338C147.021 129.206 144.345 126.626 141.145 124.859L133.782 120.723L132.024 116.812L114.339 107.728L109.545 116.206C109.545 116.206 97.9029 119.9 96.3635 122.522C94.8242 125.144 97.1272 160.551 97.1272 160.551C97.1272 160.551 92.2787 180.97 91.2302 185.197C90.1817 189.424 91.5575 194.462 91.5575 194.462L100.23 183.592C102.927 180.213 108.842 178.657 113.091 178.718L149.4 178.881L147.939 168.72L177.315 174.4C177.315 174.4 182.364 164.554 182.77 164.36C183.176 164.166 159.103 156.379 159.103 156.379Z" fill="#FF725E"/>
<path d="M113.588 119.506C113.333 119.246 115.636 127.027 118.533 134.954C120.092 139.238 120.886 143.761 120.879 148.319V177.022L138.285 175.841L135.685 156.936C135.685 156.936 133.564 144.74 132.97 140.101C132.424 135.862 130.545 124.357 130.545 124.357C130.545 124.357 120.879 126.924 113.588 119.506Z" fill="white"/>
<path d="M152.218 163.5C152.191 163.354 152.191 163.204 152.218 163.058C152.258 162.662 152.335 162.271 152.449 161.889C152.816 160.616 153.5 159.455 154.436 158.516C155.378 157.58 156.538 156.893 157.812 156.518C158.194 156.405 158.586 156.328 158.982 156.288C159.126 156.26 159.274 156.26 159.418 156.288C159.418 156.342 158.812 156.409 157.879 156.73C156.667 157.145 155.567 157.832 154.663 158.738C153.758 159.644 153.073 160.745 152.661 161.956C152.339 162.894 152.273 163.5 152.218 163.5Z" fill="#263238"/>
<path d="M153.115 156.621C153.924 156.146 154.839 155.882 155.776 155.852C156.704 155.723 157.649 155.836 158.521 156.179C158.521 156.276 157.309 156.04 155.8 156.179C154.291 156.318 153.152 156.712 153.115 156.621Z" fill="#263238"/>
<g opacity="0.3">
<path opacity="0.3" d="M95.3757 172.287L93.8606 173.994C95.4405 175.943 97.5816 177.359 99.9939 178.051C102.425 178.567 104.91 178.791 107.394 178.718C108.4 178.766 109.409 178.67 110.388 178.433C111.376 178.148 112.291 177.591 113.315 177.531C114.002 177.534 114.685 177.632 115.345 177.821C116.01 178.01 116.712 178.02 117.382 177.852C117.713 177.762 118.007 177.568 118.22 177.299C118.433 177.03 118.553 176.699 118.564 176.356C111.008 174.15 103.232 172.785 95.3757 172.287V172.287Z" fill="black"/>
</g>
<path d="M145.073 174.479L140.83 169.949L132.012 167.739C132.012 167.739 123.964 170.161 123.77 170.161C123.576 170.161 116.764 168.296 116.764 168.296L114.382 177.028L126.655 177.87L140.667 177.307C140.667 177.307 141.4 176.628 140.964 176.162C140.527 175.696 143.309 176.949 143.636 176.962C143.964 176.974 144.594 177.228 145.03 176.707C145.327 176.32 145.727 175.175 145.073 174.479Z" fill="#FFBE9D"/>
<path d="M140.964 176.132C140.488 176.042 140.021 175.908 139.57 175.732C138.721 175.466 137.539 175.127 136.224 174.763C134.909 174.4 133.697 174.158 132.818 174.006C132.337 173.944 131.864 173.832 131.406 173.673C131.891 173.652 132.378 173.689 132.854 173.782C134.014 173.944 135.163 174.17 136.297 174.461C137.432 174.748 138.55 175.104 139.642 175.526C140.107 175.671 140.551 175.875 140.964 176.132V176.132Z" fill="#EB996E"/>
<path d="M145.073 174.479C144.412 174.312 143.76 174.11 143.121 173.873C141.909 173.473 140.255 172.977 138.394 172.462C136.533 171.947 134.885 171.36 133.63 171.287C132.955 171.253 132.277 171.279 131.606 171.366C131.77 171.276 131.949 171.215 132.133 171.184C132.629 171.077 133.136 171.037 133.642 171.063C134.939 171.063 136.673 171.614 138.491 172.159C140.309 172.704 142.018 173.207 143.206 173.667C143.812 173.891 144.267 174.097 144.594 174.242C144.764 174.297 144.926 174.377 145.073 174.479V174.479Z" fill="#EB996E"/>
<path d="M96.3636 122.522C96.3636 122.522 90.0303 126.924 88.4848 133.258C86.9394 139.593 80.2667 165.48 81.6363 169.35C83.006 173.219 109.636 177.022 109.636 177.022L112.794 163.7L99.2667 160C99.2667 160 99.4424 147.677 99.6121 142.572C99.7818 137.467 96.3636 122.522 96.3636 122.522Z" fill="#FF725E"/>
<path d="M112.624 165.704L116.982 166.776L114.358 176.816L110.079 176.132L112.624 165.704Z" fill="white"/>
<path d="M81.5394 167.981C81.5394 167.981 81.5394 168.205 81.6061 168.587C81.7534 169.172 82.077 169.699 82.5333 170.094C83.6909 171.172 85.903 172.069 88.703 172.571C89.9818 172.995 91.4424 173.328 93 173.679C94.5576 174.031 96.2424 174.388 98.0121 174.745C101.558 175.472 105.479 176.235 109.636 177.01L109.455 177.125C109.751 175.914 110.061 174.588 110.394 173.262C111.139 170.234 111.867 167.254 112.551 164.451L112.661 164.632L100.667 161.235C99.0106 160.539 97.2187 160.224 95.4242 160.315C94.0604 160.391 92.7207 160.706 91.4667 161.247C90.6696 161.592 89.9084 162.014 89.1939 162.507L88.6424 162.907C88.5821 162.955 88.5172 162.998 88.4485 163.034C88.4485 163.034 88.503 162.973 88.6182 162.876C88.7333 162.779 88.9091 162.628 89.1515 162.446C89.8554 161.925 90.6133 161.48 91.4121 161.12C92.6742 160.549 94.0293 160.21 95.4121 160.121C97.2381 160.005 99.0665 160.307 100.758 161.005V161.005L112.788 164.372L112.933 164.408L112.897 164.554C112.212 167.357 111.491 170.312 110.751 173.371C110.424 174.691 110.109 175.999 109.806 177.228L109.77 177.373H109.624C105.467 176.592 101.551 175.817 98.006 175.078C96.2363 174.709 94.5576 174.339 92.9939 173.976C91.4303 173.613 89.9636 173.268 88.6788 172.826C85.8424 172.287 83.6303 171.354 82.4606 170.222C81.9968 169.805 81.6783 169.251 81.5515 168.641C81.5078 168.424 81.5037 168.2 81.5394 167.981Z" fill="#263238"/>
<path d="M100.006 160.902C99.9697 160.944 99.5151 160.527 98.703 159.988C96.5761 158.565 94.0621 157.831 91.503 157.886C90.5212 157.886 89.9212 158.02 89.9091 157.965C90.4168 157.782 90.951 157.681 91.4909 157.668C94.1204 157.478 96.7311 158.236 98.8484 159.806C99.2922 160.105 99.6834 160.475 100.006 160.902Z" fill="#263238"/>
<path d="M101.782 139.223C101.804 139.493 101.804 139.765 101.782 140.035C101.782 140.562 101.727 141.312 101.655 142.245C101.503 144.104 101.23 146.666 100.739 149.475C100.356 151.879 99.7946 154.251 99.0606 156.572C98.9151 157.015 98.7576 157.414 98.6303 157.784L98.2424 158.656C98.1288 158.904 97.9886 159.14 97.8242 159.358C97.9002 159.098 98.0017 158.847 98.1272 158.607C98.2303 158.347 98.3394 158.05 98.4666 157.723C98.5939 157.396 98.7151 156.972 98.8485 156.512C99.5109 154.182 100.039 151.817 100.43 149.427C100.915 146.629 101.224 144.08 101.43 142.227C101.521 141.349 101.6 140.616 101.661 140.035C101.668 139.76 101.709 139.488 101.782 139.223V139.223Z" fill="#263238"/>
<path d="M117.224 132.362C117.224 132.362 117.164 132.199 117.018 131.914C116.803 131.511 116.488 131.169 116.103 130.921C115.818 130.726 115.493 130.598 115.152 130.548C114.81 130.498 114.462 130.526 114.133 130.63C113.717 130.773 113.344 131.022 113.053 131.352C112.762 131.682 112.562 132.083 112.473 132.514L112.388 132.944L112.2 132.544C111.491 131.024 110.874 129.463 110.351 127.869C109.426 125.214 108.962 122.421 108.982 119.609C108.982 119.07 109.055 118.586 109.085 118.156C109.115 117.726 109.212 117.369 109.279 117.078C109.343 116.773 109.432 116.473 109.545 116.182C109.339 117.313 109.223 118.459 109.2 119.609C109.25 122.39 109.739 125.144 110.648 127.772C111.171 129.354 111.778 130.906 112.467 132.423L112.194 132.459C112.298 131.983 112.527 131.543 112.855 131.182C113.184 130.822 113.602 130.554 114.067 130.406C114.427 130.298 114.809 130.274 115.18 130.338C115.551 130.403 115.903 130.552 116.206 130.776C116.6 131.052 116.91 131.431 117.103 131.872C117.156 131.988 117.195 132.11 117.218 132.235C117.23 132.314 117.236 132.362 117.224 132.362Z" fill="#263238"/>
<path d="M132 133.725C131.935 133.489 131.888 133.248 131.861 133.004C131.728 132.337 131.685 131.654 131.733 130.976C131.87 129.931 132.39 128.975 133.194 128.293C133.691 127.884 134.314 127.66 134.958 127.657C135.308 127.653 135.656 127.725 135.976 127.868C136.296 128.012 136.582 128.223 136.812 128.487L136.545 128.644L135.97 127.197C134.836 124.345 133.83 121.747 133.115 119.876L132.285 117.641C132.169 117.375 132.082 117.096 132.024 116.812C132.173 117.062 132.299 117.325 132.4 117.599C132.642 118.204 132.952 118.913 133.327 119.797C134.097 121.656 135.145 124.23 136.267 127.064L136.836 128.517L137.206 129.45L136.6 128.668C136.4 128.436 136.151 128.251 135.872 128.126C135.592 128 135.288 127.937 134.982 127.942C134.405 127.938 133.844 128.133 133.394 128.493C132.637 129.126 132.131 130.009 131.97 130.982C131.904 131.645 131.917 132.313 132.006 132.974C132.035 133.224 132.033 133.476 132 133.725Z" fill="#263238"/>
<path d="M143.242 135.227C143.327 135.227 144.697 144.419 146.303 155.785C147.909 167.151 149.133 176.374 149.048 176.374C148.964 176.374 147.594 167.182 145.988 155.785C144.382 144.389 143.158 135.239 143.242 135.227Z" fill="#263238"/>
<g opacity="0.3">
<path opacity="0.3" d="M110.533 127.966C110.607 130.321 111.119 132.641 112.042 134.809C112.703 133.991 113.436 133.131 114.467 132.889C115.715 132.592 116.982 133.361 117.885 134.306C117.728 133.362 117.355 132.466 116.794 131.69C116.514 131.309 116.149 130.997 115.729 130.78C115.308 130.562 114.843 130.445 114.37 130.437C113.898 130.448 113.443 130.616 113.078 130.914C112.712 131.212 112.457 131.624 112.352 132.084L110.612 128.008" fill="black"/>
</g>
<path d="M100.297 134.621C100.242 134.621 100.261 133.985 100.079 132.998C99.8297 131.712 99.3293 130.488 98.6061 129.395C98.1988 128.804 97.7339 128.254 97.2182 127.754C96.7908 127.35 96.3261 126.987 95.8303 126.67C94.9758 126.131 94.3758 125.925 94.4 125.871C94.5487 125.881 94.6944 125.918 94.8303 125.98C94.9999 126.025 95.1644 126.088 95.3212 126.167C95.5307 126.257 95.7333 126.363 95.9273 126.482C96.4544 126.78 96.9481 127.133 97.4 127.536C97.9436 128.042 98.4293 128.607 98.8485 129.219C99.5997 130.344 100.088 131.623 100.279 132.962C100.339 133.362 100.359 133.768 100.339 134.173C100.339 134.464 100.321 134.621 100.297 134.621Z" fill="#263238"/>
<path d="M135.479 91.4388C135.133 88.1962 133.577 85.2027 131.122 83.0539C128.668 80.9052 125.493 79.7586 122.23 79.8424H121.558C114.315 80.448 110.788 86.9335 111.6 94.1456L113.588 119.518L114.43 120.548C116.322 122.869 118.928 124.501 121.844 125.187C124.76 125.874 127.822 125.578 130.552 124.345V124.345L129.994 116.182C129.994 116.182 136.939 114.922 136.842 107.958C136.8 104.579 136.145 97.6639 135.479 91.4388Z" fill="#FFBE9D"/>
<path d="M130.048 116.164C126.815 116.254 123.623 115.413 120.854 113.741C120.854 113.741 123.127 118.701 130.067 117.896L130.048 116.164Z" fill="#EB996E"/>
<path d="M133.273 97.1674C133.28 97.426 133.186 97.6774 133.013 97.8691C132.839 98.0609 132.598 98.1782 132.339 98.1969C132.213 98.2093 132.085 98.1966 131.964 98.1594C131.843 98.1222 131.73 98.0612 131.632 97.9801C131.535 97.8989 131.454 97.7992 131.396 97.6867C131.337 97.5743 131.301 97.4512 131.291 97.3248C131.282 97.0658 131.375 96.8136 131.549 96.6216C131.723 96.4295 131.965 96.3125 132.224 96.2954C132.351 96.2821 132.478 96.2942 132.6 96.3311C132.722 96.368 132.835 96.4289 132.933 96.5102C133.03 96.5915 133.111 96.6915 133.169 96.8044C133.228 96.9173 133.263 97.0407 133.273 97.1674Z" fill="#263238"/>
<path d="M133.715 93.3827C133.636 93.5038 132.848 93.5885 131.897 94.0972C130.945 94.6059 130.388 95.2417 130.261 95.2296C130.133 95.2175 130.261 95.054 130.497 94.7694C130.859 94.3677 131.29 94.0335 131.77 93.7823C132.227 93.5269 132.729 93.3605 133.248 93.2918C133.606 93.2555 133.758 93.3221 133.715 93.3827Z" fill="#263238"/>
<path d="M123.212 97.6943C123.224 97.9541 123.132 98.208 122.957 98.4008C122.783 98.5936 122.539 98.7096 122.279 98.7237C122.152 98.7371 122.024 98.7249 121.903 98.688C121.781 98.6511 121.668 98.5903 121.57 98.509C121.472 98.4277 121.392 98.3276 121.334 98.2147C121.275 98.1018 121.24 97.9784 121.23 97.8517C121.222 97.5927 121.314 97.3405 121.489 97.1484C121.663 96.9564 121.905 96.8394 122.164 96.8223C122.29 96.8089 122.418 96.8211 122.54 96.858C122.661 96.8948 122.774 96.9557 122.872 97.037C122.97 97.1183 123.05 97.2184 123.109 97.3313C123.167 97.4441 123.202 97.5676 123.212 97.6943V97.6943Z" fill="#263238"/>
<path d="M123.091 94.8421C122.951 94.8421 122.303 94.4364 121.273 94.182C120.242 93.9277 119.388 93.9822 119.297 93.8974C119.206 93.8126 119.406 93.7763 119.776 93.746C120.316 93.7118 120.858 93.7629 121.382 93.8974C121.889 94.0178 122.373 94.2225 122.812 94.503C123.054 94.6967 123.127 94.83 123.091 94.8421Z" fill="#263238"/>
<path d="M127.261 103.156C127.822 102.969 128.404 102.849 128.994 102.799C129.267 102.799 129.521 102.702 129.564 102.515C129.581 102.234 129.511 101.955 129.364 101.715L128.497 99.6503C127.285 96.7194 126.424 94.3032 126.545 94.2608C126.667 94.2184 127.758 96.5498 128.927 99.4807C129.218 100.207 129.497 100.898 129.758 101.558C129.937 101.882 129.997 102.259 129.927 102.624C129.89 102.721 129.83 102.809 129.754 102.88C129.677 102.952 129.585 103.005 129.485 103.035C129.336 103.082 129.181 103.109 129.024 103.114C128.441 103.204 127.848 103.218 127.261 103.156Z" fill="#263238"/>
<path d="M123.091 90.7121C122.97 90.9967 121.909 90.809 120.667 90.8938C119.424 90.9786 118.37 91.2813 118.242 91.0088C118.17 90.8817 118.364 90.6152 118.782 90.3549C119.344 90.0349 119.973 89.8479 120.619 89.808C121.265 89.7681 121.911 89.8765 122.509 90.1248C122.909 90.3367 123.127 90.5729 123.091 90.7121Z" fill="#263238"/>
<path d="M133.691 90.9483C133.455 91.1966 132.533 90.9483 131.43 90.9483C130.327 90.9483 129.388 91.136 129.17 90.8817C129.073 90.7606 129.218 90.5123 129.624 90.2761C130.184 89.9828 130.81 89.8389 131.442 89.8583C132.079 89.8539 132.706 90.0168 133.261 90.3306C133.661 90.5789 133.794 90.8332 133.691 90.9483Z" fill="#263238"/>
<path d="M137.509 85.2501C137.448 84.9322 137.272 84.6478 137.015 84.4503C136.759 84.2529 136.438 84.1561 136.115 84.1782C136.463 84.079 136.789 83.9123 137.073 83.6877C137.214 83.574 137.32 83.4227 137.379 83.2513C137.438 83.0799 137.447 82.8953 137.406 82.7189C137.224 82.1799 136.533 82.0649 135.988 81.9135C135.272 81.7056 134.637 81.2828 134.17 80.7024C133.509 79.8667 133.255 78.7767 132.679 77.8744C132.307 77.2919 131.809 76.8002 131.222 76.4354C130.635 76.0705 129.973 75.842 129.286 75.7664C128.598 75.6909 127.903 75.7703 127.25 75.9989C126.598 76.2275 126.005 76.5994 125.515 77.0872C124.98 76.538 124.322 76.1242 123.595 75.8803C122.868 75.6364 122.093 75.5694 121.335 75.6849C120.577 75.8004 119.858 76.095 119.236 76.5443C118.615 76.9936 118.11 77.5845 117.764 78.268C116.834 77.8806 115.817 77.7501 114.819 77.8901C113.822 78.0301 112.88 78.4356 112.094 79.0639C111.307 79.6923 110.703 80.5205 110.347 81.4618C109.99 82.4031 109.893 83.4229 110.067 84.4144L114.406 87.0728C114.441 86.743 114.546 86.4245 114.714 86.1383C114.881 85.852 115.108 85.6045 115.378 85.4122C115.648 85.2199 115.957 85.0871 116.282 85.0226C116.608 84.9581 116.943 84.9634 117.267 85.0381C118.576 85.4196 119.412 86.9335 120.77 87.0365C121.83 87.1152 122.733 86.2977 123.758 86.0252C125 85.6921 126.315 86.1887 127.436 86.8185C128.558 87.4482 129.63 88.2355 130.879 88.5503C132.37 88.849 133.918 88.6645 135.297 88.0235C135.909 87.8088 136.468 87.4638 136.933 87.0122C137.163 86.7856 137.335 86.5075 137.435 86.2009C137.535 85.8944 137.561 85.5684 137.509 85.2501Z" fill="#263238"/>
<path d="M115.139 85.0261L135.018 84.9171C134.301 83.5822 133.259 82.4493 131.988 81.6228C129.348 79.6955 126.166 78.6507 122.897 78.6375C119.654 78.6375 113.17 82.7976 110.885 85.0927C109.067 86.9093 109.115 88.4777 109.115 88.4777C108.885 91.0574 110.406 93.9277 111.054 96.4529C111.382 97.7488 112.067 101.673 112.067 101.673C113.157 101.642 113.539 100.758 113.345 99.6805L113.024 95.4416C114.097 94.5475 114.848 93.3281 115.164 91.9685C115.48 90.609 115.344 89.1835 114.776 87.9085C114.503 87.5331 113.848 85.783 115.139 85.0261Z" fill="#263238"/>
<path d="M112.739 95.163C111.727 91.6508 110.794 87.8964 111.873 84.3842H111.267L111.024 84.5598C110.464 84.3716 109.858 84.3667 109.295 84.5458C108.731 84.725 108.24 85.0787 107.891 85.5559C107.543 86.033 107.355 86.6087 107.356 87.1994C107.357 87.7901 107.547 88.3651 107.897 88.841C107.306 88.8358 106.733 89.0465 106.287 89.4335C105.841 89.8204 105.551 90.357 105.473 90.9423C105.475 91.7579 105.699 92.5576 106.121 93.2555C106.544 93.9556 106.803 94.7423 106.879 95.5567C106.904 95.9622 106.786 96.3637 106.544 96.6905C106.302 97.0172 105.953 97.2483 105.558 97.3431C105.749 97.7562 106.077 98.0907 106.487 98.2904C106.896 98.49 107.362 98.5425 107.806 98.4391C107.523 99.1294 107.05 99.7256 106.442 100.159C107.739 101.043 109.515 100.764 110.921 100.056C111.793 99.7054 112.506 99.0456 112.921 98.2029C113.309 97.228 113.018 96.1562 112.739 95.163Z" fill="#263238"/>
<path d="M112.412 99.2626C112.291 99.2142 107.564 97.9728 107.861 102.726C108.158 107.48 112.861 106.227 112.861 106.087C112.861 105.948 112.412 99.2626 112.412 99.2626Z" fill="#FFBE9D"/>
<path d="M111.721 104.361C111.721 104.361 111.642 104.422 111.503 104.495C111.315 104.588 111.098 104.605 110.897 104.543C110.382 104.386 109.915 103.617 109.842 102.757C109.806 102.346 109.862 101.932 110.006 101.546C110.045 101.393 110.12 101.252 110.226 101.135C110.331 101.017 110.464 100.928 110.612 100.873C110.706 100.844 110.807 100.848 110.899 100.884C110.991 100.921 111.067 100.987 111.115 101.073C111.188 101.2 111.158 101.297 111.188 101.309C111.218 101.322 111.285 101.219 111.236 101.025C111.197 100.912 111.126 100.813 111.03 100.74C110.963 100.693 110.887 100.661 110.807 100.644C110.727 100.627 110.644 100.627 110.564 100.643C110.371 100.694 110.194 100.793 110.05 100.93C109.905 101.068 109.799 101.24 109.739 101.431C109.565 101.856 109.492 102.316 109.527 102.775C109.618 103.732 110.133 104.592 110.861 104.761C110.99 104.789 111.123 104.789 111.252 104.76C111.381 104.73 111.502 104.673 111.606 104.592C111.721 104.476 111.739 104.367 111.721 104.361Z" fill="#EB996E"/>
<path d="M107.473 95.3204C107.473 95.3204 107.339 95.1388 107.382 94.7633C107.433 94.5086 107.539 94.2681 107.693 94.0588C107.847 93.8496 108.045 93.6766 108.273 93.5522C108.956 93.2274 109.699 93.0479 110.455 93.0254C110.878 93.0254 111.295 92.9256 111.672 92.7341C112.049 92.5426 112.375 92.2647 112.624 91.9233C113.02 91.1532 113.152 90.2746 113 89.4223C112.885 88.623 112.673 87.9024 112.57 87.2786C112.378 86.6104 112.388 85.9002 112.6 85.2379C112.604 85.9061 112.679 86.5719 112.824 87.2241C112.958 87.8297 113.194 88.5382 113.339 89.3799C113.522 90.3112 113.381 91.277 112.939 92.117C112.677 92.5512 112.278 92.8874 111.806 93.0738C111.383 93.2306 110.941 93.3284 110.491 93.3645C109.774 93.3687 109.065 93.5084 108.4 93.7763C108.192 93.8832 108.007 94.0303 107.856 94.2091C107.705 94.3879 107.592 94.5948 107.521 94.8178C107.494 94.9841 107.478 95.152 107.473 95.3204V95.3204Z" fill="#455A64"/>
<path d="M106.321 93.2556C106.321 93.2556 106.218 93.1223 106.176 92.8256C106.127 92.4072 106.209 91.9839 106.412 91.6145C106.551 91.352 106.743 91.1211 106.976 90.9363C107.248 90.7324 107.559 90.588 107.891 90.5124C108.212 90.4435 108.518 90.3163 108.794 90.1369C108.916 90.0281 109.011 89.8931 109.073 89.7421C109.135 89.591 109.162 89.4279 109.151 89.2649C109.151 88.9077 109.109 88.5262 109.121 88.1447C109.126 87.7803 109.167 87.4172 109.242 87.0607C109.365 86.4584 109.597 85.8836 109.927 85.3652C110.032 85.1749 110.183 85.0138 110.366 84.8965C110.549 84.7791 110.759 84.7092 110.976 84.693C111.291 84.693 111.424 84.8383 111.412 84.8504C111.4 84.8625 111.255 84.7959 110.988 84.8504C110.806 84.8893 110.635 84.9696 110.489 85.0852C110.343 85.2007 110.225 85.3483 110.145 85.5165C109.872 86.0245 109.68 86.5721 109.576 87.1394C109.517 87.4754 109.487 87.8157 109.485 88.1568C109.485 88.508 109.539 88.8834 109.521 89.2952C109.53 89.5108 109.489 89.7255 109.402 89.9228C109.315 90.1202 109.184 90.295 109.018 90.4337C108.705 90.6429 108.352 90.7852 107.982 90.8515C107.706 90.8986 107.443 91.0041 107.211 91.1607C106.979 91.3173 106.783 91.5216 106.636 91.7598C106.387 92.217 106.278 92.7369 106.321 93.2556V93.2556Z" fill="#455A64"/>
<path d="M134.176 80.7023C134.206 80.7023 133.818 80.9627 133.194 80.672C132.842 80.4816 132.535 80.2196 132.291 79.903C131.99 79.5091 131.616 79.1779 131.188 78.928C130.631 78.6154 129.996 78.4713 129.359 78.5132C128.722 78.5552 128.111 78.7813 127.6 79.1642C126.994 79.5881 126.491 80.1876 125.782 80.6841C125.421 80.9514 125.008 81.1392 124.57 81.2352C124.116 81.3146 123.649 81.2707 123.218 81.108C122.358 80.7992 121.679 80.2724 120.939 80.0059C120.226 79.7322 119.467 79.5946 118.703 79.6002C117.386 79.5986 116.107 80.0354 115.067 80.8416C114.372 81.384 113.794 82.0618 113.37 82.8339C113.073 83.3849 112.964 83.724 112.933 83.7119C112.903 83.6998 112.933 83.6211 112.982 83.4576C113.05 83.2218 113.135 82.9911 113.236 82.7672C113.628 81.9426 114.197 81.2147 114.903 80.6357C115.967 79.7669 117.293 79.2825 118.667 79.2611C119.475 79.2401 120.281 79.3779 121.036 79.6668C121.836 79.9575 122.527 80.4843 123.309 80.7568C123.679 80.8993 124.082 80.9391 124.473 80.8719C124.852 80.785 125.209 80.62 125.521 80.3874C126.158 79.9333 126.691 79.3338 127.339 78.8856C127.939 78.4369 128.669 78.1965 129.418 78.2014C130.057 78.206 130.684 78.3772 131.236 78.6979C131.679 78.9799 132.064 79.3437 132.37 79.7698C132.582 80.0809 132.856 80.3448 133.176 80.5449C133.476 80.7236 133.834 80.78 134.176 80.7023Z" fill="#455A64"/>
<path d="M124.618 104.404C124.77 104.404 124.939 105.385 125.933 105.96C126.927 106.535 127.988 106.245 128.024 106.384C128.061 106.523 127.812 106.626 127.357 106.711C126.763 106.821 126.15 106.718 125.624 106.42C125.121 106.129 124.748 105.657 124.582 105.1C124.473 104.682 124.545 104.41 124.618 104.404Z" fill="#263238"/>
<path d="M187.333 199.022C185.488 197.438 183.094 196.642 180.667 196.805L176.57 209.807C179.57 209.94 182.564 211.484 185.461 210.691C186.618 210.334 187.648 209.655 188.431 208.732C189.214 207.809 189.716 206.682 189.879 205.483C190.005 204.281 189.839 203.066 189.396 201.942C188.953 200.817 188.246 199.815 187.333 199.022V199.022Z" fill="#FF725E"/>
<path d="M180.715 196.509C180.715 196.406 181.158 196.321 181.927 196.327C183.072 196.348 184.206 196.563 185.279 196.963C186.918 197.601 188.338 198.702 189.364 200.13C189.991 200.977 190.453 201.934 190.727 202.952C191.024 204.065 191.057 205.233 190.824 206.361C190.599 207.505 190.088 208.573 189.339 209.468C188.622 210.282 187.715 210.906 186.697 211.284C185.044 211.869 183.26 211.984 181.545 211.617C180.442 211.401 179.365 211.066 178.333 210.618C177.612 210.309 177.23 210.079 177.267 209.976C177.303 209.873 177.739 209.904 178.479 210.031C179.218 210.158 180.339 210.394 181.673 210.515C183.185 210.683 184.715 210.475 186.127 209.91C186.902 209.583 187.587 209.076 188.127 208.432C188.694 207.728 189.08 206.897 189.255 206.01C189.421 205.131 189.408 204.228 189.218 203.354C189.027 202.48 188.663 201.653 188.145 200.923C187.31 199.659 186.162 198.633 184.812 197.944C183.856 197.493 182.854 197.144 181.824 196.902C181.127 196.745 180.703 196.618 180.715 196.509Z" fill="#F5F5F5"/>
<path d="M142.757 245.286L133.848 270.229L164.848 281.462C165.745 278.434 151.861 266.687 151.861 266.687L158.224 250.942L142.757 245.286Z" fill="#FF725E"/>
<g opacity="0.6">
<path opacity="0.6" d="M142.764 261.872C142.432 261.855 142.106 261.96 141.848 262.168C141.589 262.376 141.417 262.672 141.364 262.999C141.334 263.328 141.432 263.656 141.637 263.915C141.842 264.174 142.139 264.345 142.467 264.392C142.82 264.41 143.167 264.297 143.441 264.072C143.715 263.848 143.895 263.53 143.945 263.18C143.945 262.52 143.291 261.763 142.636 261.854" fill="white"/>
</g>
<path d="M133.848 270.229L134.751 267.716L164.194 279.452C164.194 279.452 165.357 280.548 164.848 281.462L133.848 270.229Z" fill="white"/>
<path d="M152.424 266.711C152.364 266.862 151.582 266.656 150.661 266.874C149.739 267.092 149.109 267.583 148.994 267.48C148.879 267.377 149.418 266.578 150.539 266.335C151.661 266.093 152.503 266.584 152.424 266.711Z" fill="#263238"/>
<path d="M155.212 269.236C155.212 269.393 154.442 269.412 153.697 269.842C152.951 270.271 152.557 270.919 152.406 270.859C152.254 270.798 152.473 269.908 153.412 269.357C154.351 268.806 155.212 269.091 155.212 269.236Z" fill="#263238"/>
<path d="M155.618 273.79C155.473 273.79 155.533 272.942 156.224 272.252C156.915 271.561 157.739 271.495 157.758 271.646C157.776 271.797 157.182 272.076 156.624 272.651C156.067 273.227 155.776 273.832 155.618 273.79Z" fill="#263238"/>
<path d="M153.473 262.962C153.358 263.077 152.739 262.617 151.867 262.357C150.994 262.096 150.224 262.133 150.194 261.975C150.164 261.818 150.994 261.509 152.012 261.824C153.03 262.139 153.594 262.872 153.473 262.962Z" fill="#263238"/>
<path d="M154.067 259.02C153.51 258.971 152.977 258.775 152.521 258.451C151.996 258.151 151.511 257.784 151.079 257.361C150.82 257.114 150.579 256.849 150.358 256.568C150.218 256.408 150.103 256.229 150.018 256.035C149.957 255.891 149.946 255.732 149.987 255.581C150.028 255.431 150.118 255.299 150.242 255.205C150.356 255.127 150.487 255.077 150.624 255.058C150.76 255.039 150.9 255.052 151.03 255.096C151.227 255.167 151.413 255.265 151.582 255.387C151.885 255.589 152.169 255.818 152.43 256.071C152.868 256.495 153.236 256.986 153.521 257.525C153.833 257.996 153.991 258.552 153.976 259.117C153.891 259.117 153.709 258.542 153.182 257.724C152.869 257.254 152.498 256.825 152.079 256.447C151.831 256.224 151.565 256.022 151.285 255.841C150.988 255.635 150.709 255.532 150.576 255.647C150.442 255.762 150.509 255.714 150.545 255.835C150.609 255.978 150.692 256.11 150.794 256.229C150.993 256.497 151.209 256.752 151.442 256.992C151.836 257.406 152.268 257.781 152.733 258.112C153.533 258.687 154.103 258.942 154.067 259.02Z" fill="#263238"/>
<path d="M153.794 259.178C153.662 258.628 153.709 258.052 153.927 257.531C154.111 256.947 154.392 256.398 154.757 255.908C154.977 255.62 155.223 255.352 155.491 255.108C155.65 254.935 155.852 254.805 156.075 254.731C156.299 254.657 156.538 254.641 156.77 254.684C156.907 254.739 157.025 254.831 157.112 254.95C157.199 255.069 157.25 255.21 157.261 255.357C157.272 255.56 157.255 255.763 157.212 255.962C157.117 256.454 156.924 256.921 156.645 257.337C156.366 257.753 156.007 258.109 155.588 258.384C154.691 258.99 153.994 258.917 154 258.863C154.006 258.808 154.606 258.669 155.357 258.064C155.785 257.716 156.132 257.28 156.376 256.786C156.517 256.498 156.617 256.193 156.673 255.877C156.745 255.532 156.715 255.217 156.582 255.211C156.445 255.206 156.309 255.231 156.184 255.284C156.058 255.338 155.945 255.418 155.854 255.52C155.603 255.733 155.372 255.968 155.164 256.223C154.808 256.657 154.518 257.14 154.303 257.658C153.927 258.572 153.885 259.178 153.794 259.178Z" fill="#263238"/>
<path d="M112.727 178.675C108.024 178.784 103.564 179.444 100.321 182.853C96.0242 187.377 90.7151 193.814 90.4121 198.277C89.9636 204.938 93.9939 206.936 96.9333 208.571C98.2335 209.274 99.6987 209.615 101.176 209.558L155.527 209.147L157.23 199.948L122.079 191.289L123.539 178.07L112.727 178.675Z" fill="#263238"/>
<path d="M123.57 178.064L140.667 177.276C140.667 177.276 170.206 178.917 176.503 184.688C182.8 190.459 182.018 197.017 179.915 203.309C177.812 209.601 159.309 249.864 159.309 249.864C159.309 249.864 160.812 252.426 159.97 254.981C159.629 256.1 159.003 257.112 158.153 257.917C157.303 258.721 156.258 259.292 155.121 259.571L138.685 253.516C138.685 253.516 136.455 252.729 138.03 250.627C139.606 248.526 140.655 248.138 140.655 248.138V243.942C140.655 243.942 146.43 233.448 146.952 232.006C147.473 230.565 153.012 209.213 153.012 209.213L156.691 202.897C156.691 202.897 147.8 198.719 140.091 195.691L122.091 191.259L123.57 178.064Z" fill="#263238"/>
<path d="M151.303 252.777C150.806 252.488 150.324 252.173 149.861 251.832C147.539 250.329 144.923 249.336 142.188 248.92C141.614 248.864 141.044 248.779 140.479 248.665C141.055 248.599 141.638 248.609 142.212 248.696C145.016 248.995 147.694 250.013 149.988 251.651C150.474 251.967 150.916 252.345 151.303 252.777Z" fill="#455A64"/>
<path d="M159.515 249.895C159.157 249.601 158.837 249.263 158.564 248.889C158.006 248.241 157.267 247.321 156.497 246.267C155.727 245.214 155.061 244.239 154.606 243.518C154.335 243.141 154.107 242.735 153.927 242.307C154.253 242.636 154.541 242.999 154.788 243.391L156.751 246.08C157.485 247.073 158.158 247.969 158.739 248.75C159.039 249.102 159.299 249.486 159.515 249.895Z" fill="#455A64"/>
<path d="M165.515 197.157C165.515 197.205 164.909 197.338 163.958 197.653C161.466 198.475 159.209 199.883 157.376 201.759C157.018 202.171 156.64 202.565 156.242 202.94C156.499 202.451 156.825 202.002 157.212 201.608C158.094 200.613 159.114 199.75 160.242 199.046C161.37 198.337 162.595 197.796 163.879 197.441C164.407 197.264 164.958 197.168 165.515 197.157Z" fill="#455A64"/>
<path d="M148.727 225.666C148.734 225.545 148.757 225.425 148.794 225.309L149.048 224.31L150.03 220.646L153.394 208.59C154.079 206.234 154.661 203.993 155.321 201.959C156.019 200.191 157.073 198.585 158.418 197.242C159.306 196.331 160.29 195.519 161.351 194.819C161.733 194.577 162.03 194.395 162.242 194.286C162.344 194.222 162.452 194.167 162.564 194.123C162.564 194.123 162.151 194.401 161.424 194.916C160.397 195.649 159.444 196.478 158.576 197.393C157.278 198.731 156.264 200.317 155.594 202.056C154.988 204.06 154.382 206.331 153.697 208.674L150.248 220.701C149.8 222.209 149.43 223.438 149.164 224.334C149.036 224.734 148.939 225.061 148.854 225.315C148.828 225.437 148.785 225.556 148.727 225.666V225.666Z" fill="#455A64"/>
<path d="M133.606 194.91C133.515 194.91 133.158 191.725 132.8 187.777C132.442 183.829 132.194 180.619 132.315 180.613C132.436 180.607 132.758 183.798 133.115 187.746C133.473 191.695 133.691 194.904 133.606 194.91Z" fill="#455A64"/>
<path d="M105.145 203.467C105.097 203.467 104.836 202.976 104.297 202.219C103.601 201.235 102.766 200.356 101.818 199.609C100.863 198.872 99.8082 198.275 98.6848 197.835C97.8182 197.496 97.2545 197.369 97.2667 197.314C97.7768 197.338 98.28 197.442 98.7576 197.623C101.128 198.404 103.152 199.984 104.485 202.092C104.779 202.511 105.002 202.975 105.145 203.467V203.467Z" fill="#455A64"/>
<path d="M115.618 191.84C115.618 191.888 114.867 191.428 113.612 190.853C110.321 189.359 106.67 188.838 103.091 189.351C101.727 189.545 100.897 189.787 100.885 189.733C101.061 189.633 101.251 189.56 101.449 189.515C101.975 189.352 102.512 189.222 103.055 189.127C106.674 188.492 110.402 189.027 113.697 190.653C114.191 190.897 114.669 191.172 115.127 191.477C115.307 191.574 115.472 191.697 115.618 191.84V191.84Z" fill="#455A64"/>
<path d="M156.564 199.93C156.418 199.923 156.273 199.899 156.133 199.857L154.921 199.597L150.497 198.622C146.758 197.786 141.582 196.66 135.842 195.528C130.103 194.395 124.891 193.457 121.115 192.809L116.636 192.04L115.424 191.828C115.281 191.811 115.141 191.776 115.006 191.725C115.15 191.729 115.294 191.741 115.436 191.761L116.649 191.919C117.709 192.064 119.242 192.294 121.139 192.591C124.927 193.196 130.152 194.08 135.897 195.219C141.642 196.357 146.806 197.514 150.539 198.404C152.4 198.852 153.909 199.228 154.945 199.5L156.158 199.815C156.296 199.841 156.432 199.88 156.564 199.93V199.93Z" fill="#455A64"/>
<path d="M122.109 192.839C122.048 192.839 121.921 192.125 121.358 191.107C121.028 190.52 120.62 189.98 120.145 189.503C119.547 188.914 118.911 188.363 118.242 187.855C117.01 186.946 115.707 186.136 114.345 185.433C113.769 185.159 113.214 184.844 112.685 184.489C113.295 184.681 113.885 184.931 114.448 185.233C115.855 185.885 117.191 186.678 118.436 187.601C119.114 188.118 119.754 188.682 120.351 189.291C120.838 189.794 121.247 190.368 121.564 190.992C121.781 191.414 121.946 191.862 122.054 192.324C122.104 192.491 122.123 192.666 122.109 192.839V192.839Z" fill="#455A64"/>
<path d="M182.648 201.044C182.715 201.117 181.806 202.031 181.097 203.43C180.388 204.829 180.158 206.089 180.067 206.071C180.065 205.092 180.324 204.13 180.818 203.285C181.22 202.39 181.851 201.617 182.648 201.044V201.044Z" fill="#263238"/>
<g opacity="0.3">
<path opacity="0.3" d="M143.745 138.999L147.636 166.382L147.83 166.818C148.743 157.352 147.341 147.805 143.745 138.999Z" fill="black"/>
</g>
<path d="M164.697 154.732L152.048 176.822L120.879 177.5L120.8 178.911L150.982 178.687L151.939 178.651L183.806 178.718L190.248 167.618L198.479 155.834C198.598 155.659 198.667 155.455 198.678 155.244C198.69 155.032 198.644 154.822 198.545 154.635C198.446 154.448 198.297 154.292 198.116 154.183C197.934 154.074 197.727 154.017 197.515 154.017L165.703 154.138C165.498 154.14 165.297 154.195 165.12 154.3C164.943 154.404 164.797 154.553 164.697 154.732V154.732Z" fill="#E0E0E0"/>
<path d="M190.249 167.636C190.249 167.636 191.885 169.138 191.63 170.409C191.376 171.681 191.455 172.632 190.249 172.716C190.271 173.182 190.114 173.638 189.809 173.991C189.505 174.343 189.076 174.566 188.612 174.612C188.612 174.612 188.982 176.61 186.655 176.955C186.655 176.955 185.939 179.093 184.473 178.572C183.627 178.285 182.815 177.91 182.048 177.452L181.618 176.677C181.618 176.677 179.455 175.865 179.988 174.648C180.315 173.909 181.43 173.716 181.43 173.716C181.302 173.412 181.248 173.083 181.272 172.754C181.296 172.426 181.398 172.108 181.57 171.826C182.085 171.13 183.77 171.705 183.77 171.705C183.735 171.109 183.925 170.521 184.303 170.058C184.909 169.374 187.564 171.221 187.564 171.221L189.024 169.477L190.249 167.636Z" fill="#FFBE9D"/>
<path d="M186.655 176.955C185.71 176.553 184.808 176.056 183.964 175.472C183.064 174.976 182.219 174.387 181.443 173.716C182.387 174.122 183.288 174.621 184.133 175.205C185.031 175.702 185.875 176.289 186.655 176.955V176.955Z" fill="#EB996E"/>
<path d="M188.612 174.612C187.733 174.267 186.895 173.824 186.115 173.292C185.281 172.85 184.499 172.318 183.782 171.705C184.662 172.047 185.5 172.49 186.279 173.025C187.113 173.467 187.895 173.999 188.612 174.612V174.612Z" fill="#EB996E"/>
<path d="M185.945 170.228C185.994 170.137 186.994 170.664 188.158 171.403C188.879 171.819 189.573 172.28 190.236 172.783C190.194 172.886 189.151 172.414 187.988 171.669C187.258 171.262 186.574 170.779 185.945 170.228V170.228Z" fill="#EB996E"/>
<path d="M198.479 154.865C198.429 154.873 198.377 154.873 198.327 154.865H197.879H196.158L189.83 154.913L168.952 154.962H167.43C167.206 154.94 166.98 154.98 166.777 155.076C166.573 155.171 166.399 155.32 166.273 155.507C165.788 156.371 165.315 157.222 164.855 158.062L162.164 162.907L157.6 171.1C156.303 173.413 155.242 175.29 154.497 176.616C154.139 177.222 153.848 177.743 153.642 178.106L153.412 178.487L153.327 178.615C153.327 178.615 153.327 178.56 153.382 178.469L153.588 178.07L154.394 176.556L157.424 170.991L161.933 162.761C162.782 161.217 163.679 159.594 164.6 157.917L166.024 155.343C166.18 155.113 166.393 154.928 166.643 154.806C166.893 154.685 167.171 154.632 167.448 154.653H168.97L189.848 154.695L196.176 154.75L197.897 154.78H198.345C198.394 154.801 198.439 154.829 198.479 154.865Z" fill="#263238"/>
<path d="M176.054 165.977C175.907 166.189 175.825 166.44 175.817 166.699C175.809 166.957 175.875 167.212 176.009 167.434C176.142 167.656 176.337 167.834 176.569 167.948C176.802 168.062 177.062 168.106 177.319 168.076C177.576 168.046 177.819 167.942 178.018 167.777C178.218 167.612 178.366 167.394 178.444 167.147C178.522 166.901 178.528 166.637 178.46 166.387C178.392 166.138 178.253 165.913 178.061 165.741C177.762 165.508 177.384 165.403 177.009 165.447C176.633 165.491 176.29 165.681 176.054 165.977V165.977Z" fill="white"/>
<g opacity="0.3">
<path opacity="0.3" d="M87.5697 157.444C87.303 157.553 86.9939 157.735 86.9939 158.05C87.0035 158.167 87.0525 158.277 87.1328 158.363C87.2131 158.449 87.3201 158.505 87.4363 158.522C87.8809 158.459 88.3163 158.343 88.7333 158.177C92.0121 157.456 94.709 158.147 97.8242 159.388L97.9272 159.285C96.6909 156.603 91.0969 156.009 87.5697 157.444Z" fill="black"/>
</g>
<path d="M256.424 280.372C256.424 280.457 201.606 280.53 134 280.53C66.3939 280.53 11.5757 280.433 11.5757 280.372C11.5757 280.312 66.3817 280.215 134 280.215C201.618 280.215 256.424 280.257 256.424 280.372Z" fill="#263238"/>
<path d="M70.6181 87.327C70.7211 87.43 90.8484 80.5206 90.8484 80.5206L83.0908 62.7778L65.1938 69.6388L75.0484 75.2947L70.6181 87.327Z" fill="#455A64"/>
<path d="M80.0605 68.1189V43.9633C80.0605 43.9633 107.824 38.8887 127.83 39.1915C147.836 39.4943 168.436 42.7703 168.436 42.7703V65.9631C168.436 65.9631 105.733 60.3678 80.0605 68.1189Z" fill="#455A64"/>
<path d="M79.915 68.1431L90.8241 80.6236V65.9631C90.8241 65.9631 81.7029 67.0531 79.915 68.1431Z" fill="#263238"/>
<path d="M80.0605 43.9573C80.1514 43.9573 80.1878 49.4073 80.1514 56.0684C80.115 62.7295 80.006 68.1795 79.9211 68.1795C79.8363 68.1795 79.7939 62.7658 79.8302 56.0684C79.8666 49.3709 79.9696 43.9573 80.0605 43.9573Z" fill="#263238"/>
<path d="M177.83 85.4741C177.727 85.577 157.6 78.6677 157.6 78.6677L165.339 60.9188L183.254 67.7677L173.394 73.4235L177.83 85.4741Z" fill="#455A64"/>
<path d="M168.545 66.2901L157.636 78.7706V65.1698C161.294 65.2949 164.939 65.6692 168.545 66.2901V66.2901Z" fill="#263238"/>
<path d="M168.424 42.7703C168.509 42.7703 168.606 48.0325 168.636 54.5302C168.667 61.0278 168.636 66.29 168.533 66.29C168.43 66.29 168.351 61.0278 168.321 54.5302C168.291 48.0325 168.333 42.7703 168.424 42.7703Z" fill="#263238"/>
<path d="M95.7151 54.5544C95.6579 53.859 95.8071 53.1621 96.1441 52.551C96.4812 51.9399 96.9911 51.4416 97.61 51.1185C98.229 50.7954 98.9296 50.6618 99.6241 50.7343C100.319 50.8069 100.976 51.0825 101.515 51.5266L100.667 52.544C100.438 52.3357 100.167 52.1804 99.8711 52.0894C99.5756 51.9983 99.2636 51.9736 98.9575 52.0171C98.4142 52.0926 97.9232 52.3807 97.5924 52.8179C97.2617 53.2551 97.1183 53.8057 97.1939 54.3485C97.2694 54.8914 97.5577 55.382 97.9953 55.7125C98.4329 56.0429 98.9839 56.1862 99.5272 56.1107C99.8353 56.0702 100.13 55.961 100.391 55.7912C100.651 55.6214 100.869 55.3953 101.03 55.1297L102.097 55.8745C101.702 56.449 101.146 56.8942 100.498 57.1543C99.8512 57.4145 99.1416 57.4781 98.4583 57.3372C97.7751 57.1963 97.1486 56.8571 96.6574 56.3621C96.1662 55.8671 95.8321 55.2383 95.6969 54.5544H95.7151Z" fill="white"/>
<path d="M102.327 53.646C102.214 52.9469 102.314 52.23 102.614 51.5882C102.913 50.9464 103.399 50.4093 104.008 50.0464C104.616 49.6834 105.32 49.5114 106.027 49.5526C106.735 49.5938 107.414 49.8463 107.976 50.2774C108.538 50.7085 108.958 51.2983 109.181 51.9705C109.404 52.6427 109.42 53.3663 109.227 54.0477C109.033 54.729 108.64 55.3366 108.097 55.7919C107.554 56.2471 106.887 56.5291 106.182 56.6011C105.733 56.6727 105.274 56.6521 104.833 56.5405C104.392 56.4289 103.979 56.2287 103.618 55.9522C103.257 55.6756 102.957 55.3285 102.735 54.932C102.513 54.5355 102.374 54.0979 102.327 53.646V53.646ZM107.848 53.0768C107.799 52.6839 107.635 52.3142 107.377 52.0138C107.119 51.7134 106.778 51.4955 106.397 51.3875C106.015 51.2794 105.611 51.2859 105.233 51.4062C104.855 51.5264 104.522 51.7551 104.273 52.0637C104.025 52.3722 103.873 52.747 103.836 53.1413C103.8 53.5356 103.88 53.9319 104.068 54.2809C104.255 54.6298 104.541 54.9159 104.89 55.1034C105.239 55.291 105.636 55.3717 106.03 55.3355C106.302 55.3177 106.568 55.2435 106.81 55.1178C107.052 54.9921 107.265 54.8175 107.436 54.6052C107.607 54.3928 107.732 54.1474 107.803 53.8843C107.874 53.6212 107.889 53.3462 107.848 53.0768V53.0768Z" fill="white"/>
<path d="M116.612 55.6626L116.351 51.7991L114.66 55.1055L113.994 55.1479L111.903 52.1685L112.151 55.9472L110.751 56.038L110.364 49.601L111.576 49.5222L114.242 53.3675L116.357 49.2195L117.57 49.1407L118.006 55.5717L116.612 55.6626Z" fill="white"/>
<path d="M124.958 51.2541C124.994 52.6954 123.939 53.6158 122.218 53.6764L120.915 53.7127L120.97 55.493L119.473 55.5354L119.291 49.0499L122.085 48.9712C123.812 48.947 124.909 49.8129 124.958 51.2541ZM123.442 51.2965C123.442 50.588 122.951 50.1884 122.036 50.2126L120.824 50.2489L120.891 52.4895L122.103 52.4531C123.012 52.4289 123.461 51.999 123.442 51.2965Z" fill="white"/>
<path d="M126.121 48.9106H127.612V54.1426H130.848V55.3538H126.121V48.9106Z" fill="white"/>
<path d="M136.636 54.3304V55.5415L131.636 55.3962L131.824 48.947L136.673 49.0924L136.636 50.3035L133.242 50.2005L133.206 51.6054L136.2 51.6902L136.164 52.8529L133.17 52.762L133.127 54.2577L136.636 54.3304Z" fill="white"/>
<path d="M139.4 50.4427L137.339 50.3216L137.412 49.1105L143.024 49.4496L142.951 50.6607L140.891 50.5335L140.576 55.7595L139.085 55.6686L139.4 50.4427Z" fill="white"/>
<path d="M148.461 55.2145L148.351 56.4256L143.37 55.9654L143.976 49.5465L148.824 49.9946L148.715 51.2057L145.333 50.8666L145.206 52.2654L148.188 52.538L148.085 53.6946L145.097 53.4221L144.964 54.9057L148.461 55.2145Z" fill="white"/>
<path d="M150.327 50.1339L153.23 50.5215C155.321 50.8 156.588 52.2473 156.333 54.1548C156.079 56.0623 154.467 57.1826 152.376 56.8798L149.473 56.4923L150.327 50.1339ZM152.467 55.6869C152.73 55.7292 153 55.7182 153.259 55.6547C153.519 55.5912 153.763 55.4764 153.977 55.317C154.192 55.1576 154.372 54.957 154.507 54.7269C154.643 54.4968 154.731 54.2419 154.766 53.9773C154.801 53.7127 154.783 53.4437 154.713 53.1862C154.642 52.9287 154.521 52.688 154.355 52.4782C154.19 52.2684 153.985 52.0938 153.751 51.9647C153.517 51.8356 153.26 51.7546 152.994 51.7265L151.642 51.5449L151.115 55.5052L152.467 55.6869Z" fill="white"/>
<path d="M180.842 44.9685L182.43 46.8276L186.903 44.9685L185.594 43.0126L180.842 44.9685Z" fill="#455A64"/>
<path d="M178.794 36.1214C178.794 36.5813 178.657 37.0308 178.402 37.4132C178.146 37.7956 177.782 38.0937 177.357 38.2697C176.932 38.4457 176.464 38.4917 176.013 38.402C175.561 38.3123 175.146 38.0908 174.821 37.7656C174.495 37.4404 174.274 37.0261 174.184 36.575C174.094 36.1239 174.14 35.6564 174.316 35.2315C174.493 34.8066 174.791 34.4434 175.174 34.1879C175.556 33.9324 176.006 33.796 176.467 33.796C177.083 33.7976 177.674 34.0431 178.11 34.4789C178.547 34.9146 178.792 35.5051 178.794 36.1214V36.1214Z" fill="#FF725E"/>
<path d="M126.661 70.8075C126.659 71.038 126.59 71.2629 126.46 71.4537C126.331 71.6444 126.147 71.7925 125.934 71.879C125.72 71.9655 125.485 71.9866 125.259 71.9395C125.034 71.8925 124.827 71.7795 124.666 71.6148C124.504 71.4502 124.395 71.2413 124.353 71.0147C124.311 70.7882 124.337 70.5542 124.428 70.3424C124.519 70.1307 124.671 69.9507 124.864 69.8255C125.058 69.7002 125.284 69.6352 125.515 69.6388C125.822 69.6436 126.114 69.769 126.328 69.9879C126.543 70.2067 126.662 70.5013 126.661 70.8075V70.8075Z" fill="#FF725E"/>
<path d="M72.4484 53.3312C72.4484 53.5066 72.3962 53.678 72.2984 53.8236C72.2006 53.9693 72.0617 54.0826 71.8993 54.1491C71.7369 54.2157 71.5584 54.2325 71.3864 54.1973C71.2145 54.1622 71.0568 54.0768 70.9336 53.952C70.8103 53.8271 70.727 53.6684 70.6943 53.4962C70.6615 53.3239 70.6808 53.1457 70.7496 52.9844C70.8184 52.8231 70.9337 52.6859 71.0808 52.5902C71.2279 52.4945 71.4002 52.4447 71.5757 52.4471C71.8083 52.4503 72.0302 52.5448 72.1936 52.7103C72.3569 52.8758 72.4484 53.0988 72.4484 53.3312V53.3312Z" fill="#FF725E"/>
<path d="M69.1636 43.6L71.7696 43.7574L73.006 38.6344L70.5696 38.7373L69.1636 43.6Z" fill="#455A64"/>
<path d="M150.618 84.4931L151.497 86.9516L156.697 86.0796L155.648 83.8815L150.618 84.4931Z" fill="#FF725E"/>
<path d="M98.0241 70.3049L96.4181 72.3638L99.9393 76.2818L101.236 74.2168L98.0241 70.3049Z" fill="#455A64"/>
<path d="M91.8 21.9392L97.9515 28.2067L106.612 24.9367L106.958 27.0864L103.206 34.7588L106.667 40.4874L106.376 42.2011L97.9939 40.7902L93.0363 46.222L91.8727 45.3439L90.8485 38.4345L83.0303 34.3652L82.6848 32.7847L90.5575 30.635L91.8 21.9392Z" fill="#FF725E"/>
<g opacity="0.3">
<path opacity="0.3" d="M91.8 21.9392L97.9515 28.2067L106.612 24.9367L106.958 27.0864L103.206 34.7588L106.667 40.4874L106.376 42.2011L97.9939 40.7902L93.0363 46.222L91.8727 45.3439L90.8485 38.4345L83.0303 34.3652L82.6848 32.7847L90.5575 30.635L91.8 21.9392Z" fill="black"/>
</g>
<path d="M91.8 20.177L97.9515 26.4506L106.612 24.9367L102.545 32.7241L106.667 40.4873L97.9939 39.034L91.8727 45.3439L90.5818 36.6542L82.6848 32.7847L90.5575 28.8728L91.8 20.177Z" fill="#FF725E"/>
<path d="M155.588 21.9392L149.43 28.2067L140.77 24.9367L140.424 27.0864L144.176 34.7588L140.715 40.4874L141.006 42.2011L149.388 40.7902L154.345 46.222L155.509 45.3439L156.533 38.4345L164.351 34.3652L164.697 32.7847L156.824 30.635L155.588 21.9392Z" fill="#FF725E"/>
<g opacity="0.3">
<path opacity="0.3" d="M155.588 21.9392L149.43 28.2067L140.77 24.9367L140.424 27.0864L144.176 34.7588L140.715 40.4874L141.006 42.2011L149.388 40.7902L154.345 46.222L155.509 45.3439L156.533 38.4345L164.351 34.3652L164.697 32.7847L156.824 30.635L155.588 21.9392Z" fill="black"/>
</g>
<path d="M155.588 20.177L149.43 26.4506L140.77 24.9367L144.836 32.7241L140.715 40.4873L149.388 39.034L155.509 45.3439L156.8 36.6542L164.697 32.7847L156.824 28.8728L155.588 20.177Z" fill="#FF725E"/>
<path d="M123.491 10.9363L128.612 20.934L140.424 20.2376L140.024 22.9868L132.521 30.9257L134.551 39.2278L133.551 41.208L123.861 36.297L115.745 41.0445L114.66 39.5246L116.042 30.7016L108.054 22.7628L108.236 20.7099L118.661 21.0793L123.491 10.9363Z" fill="#FF725E"/>
<g opacity="0.3">
<path opacity="0.3" d="M123.491 10.9363L128.612 20.934L140.424 20.2376L140.024 22.9868L132.521 30.9257L134.551 39.2278L133.551 41.208L123.861 36.297L115.745 41.0445L114.66 39.5246L116.042 30.7016L108.054 22.7628L108.236 20.7099L118.661 21.0793L123.491 10.9363Z" fill="black"/>
</g>
<path d="M124.158 8.7926L129.279 18.7843L140.424 20.2376L132.491 28.1946L134.551 39.2278L124.533 34.1533L114.661 39.5245L116.4 28.4308L108.236 20.7099L119.333 18.9296L124.158 8.7926Z" fill="#FF725E"/>
<path d="M144.564 98.4802L153.121 99.4249C156.01 95.3381 160.325 92.4788 165.217 91.4089C170.109 90.3389 175.224 91.1358 179.558 93.6428C183.891 96.1498 187.13 100.186 188.637 104.957C190.144 109.729 189.81 114.891 187.702 119.429C185.593 123.968 181.862 127.554 177.241 129.483C172.621 131.412 167.445 131.545 162.732 129.856C158.018 128.166 154.108 124.776 151.769 120.352C149.43 115.928 148.831 110.789 150.091 105.947V105.947L144.564 98.4802Z" fill="#FAFAFA"/>
<path d="M144.564 98.4816C144.897 98.9297 146.63 101.219 150.17 105.912H150.042C150.047 105.902 150.053 105.893 150.061 105.886C150.07 105.879 150.079 105.873 150.09 105.871C150.1 105.868 150.111 105.867 150.122 105.869C150.133 105.871 150.143 105.875 150.151 105.881C150.166 105.89 150.177 105.903 150.183 105.918C150.19 105.933 150.191 105.95 150.188 105.966C149.32 109.363 149.366 112.929 150.321 116.303C150.602 117.315 150.973 118.3 151.43 119.246C151.673 119.73 151.903 120.227 152.164 120.718L153.067 122.153C155.95 126.329 160.313 129.257 165.273 130.346C168.018 130.949 170.861 130.961 173.612 130.382C176.512 129.752 179.237 128.491 181.594 126.688C184.062 124.815 186.047 122.38 187.382 119.585C188.764 116.743 189.446 113.612 189.37 110.453C189.281 107.432 188.515 104.468 187.127 101.782C185.822 99.2353 183.972 97.0067 181.709 95.2539C177.632 92.1056 172.502 90.6403 167.376 91.1604C165.21 91.4201 163.095 92.0039 161.103 92.8923C157.933 94.3559 155.202 96.6232 153.182 99.4686C153.175 99.4802 153.166 99.4895 153.154 99.4949C153.142 99.5004 153.128 99.5018 153.115 99.4989L144.564 98.4816L153.133 99.3475L153.061 99.3838C155.075 96.4998 157.819 94.2013 161.012 92.7227C163.014 91.8009 165.146 91.1923 167.333 90.9182C172.53 90.3684 177.738 91.8387 181.879 95.0238C184.181 96.7973 186.062 99.0575 187.388 101.643C188.805 104.368 189.586 107.378 189.673 110.447C189.752 113.656 189.063 116.837 187.661 119.724C186.302 122.562 184.284 125.035 181.776 126.937C179.38 128.764 176.612 130.041 173.667 130.679C170.867 131.267 167.974 131.249 165.182 130.624C160.169 129.52 155.764 126.552 152.861 122.322L151.951 120.869C151.691 120.372 151.461 119.864 151.212 119.373C150.756 118.415 150.387 117.418 150.109 116.394C149.158 112.984 149.133 109.383 150.036 105.96L150.182 106.015C150.171 106.032 150.153 106.045 150.133 106.051C150.113 106.056 150.091 106.054 150.073 106.045L144.564 98.4816Z" fill="#263238"/>
<path d="M162.121 103.816C162.128 103.909 162.128 104.002 162.121 104.095C162.121 104.295 162.121 104.549 162.121 104.87C162.121 105.573 162.121 106.547 162.158 107.783C162.158 110.296 162.2 113.838 162.23 118.077L162.091 117.938H176.352C176.388 117.902 176.055 118.235 176.194 118.089V116.152C176.194 115.516 176.194 114.88 176.194 114.25V110.562C176.194 108.176 176.194 105.918 176.194 103.841L176.327 103.98L166.024 103.907L163.109 103.877H162.333H162.055H162.303H163.055L165.933 103.841L176.315 103.774H176.455V103.907C176.455 105.984 176.455 108.243 176.455 110.629V118.083C176.6 117.944 176.267 118.283 176.297 118.247H162.036H161.897V118.083C161.897 113.808 161.945 110.241 161.964 107.71C161.964 106.499 161.964 105.518 162 104.828C162 104.519 162 104.271 162 104.077C162.029 103.985 162.069 103.897 162.121 103.816Z" fill="#263238"/>
<path d="M174.842 106.172C175.048 106.336 173.133 109.097 170.558 112.343C170.048 112.991 169.545 113.608 169.079 114.159L168.776 114.529L168.436 114.22C166.206 112.216 164.697 110.677 164.83 110.52C164.964 110.363 166.715 111.634 169.024 113.548L168.376 113.608C168.818 113.003 169.303 112.397 169.818 111.755C172.388 108.51 174.642 106.015 174.842 106.172Z" fill="#FF725E"/>
</svg>
