<svg width="700" height="700" viewBox="0 0 467 467" fill="none" xmlns="http://www.w3.org/2000/svg">
<path d="M67.0332 149.365C78.201 149.365 87.2543 140.312 87.2543 129.144C87.2543 117.976 78.201 108.923 67.0332 108.923C55.8654 108.923 46.8121 117.976 46.8121 129.144C46.8121 140.312 55.8654 149.365 67.0332 149.365Z" fill="#EBEBEB"/>
<path d="M56.968 202.398C61.0649 200.813 63.1004 196.206 61.5145 192.109C59.9286 188.012 55.3219 185.977 51.225 187.562C47.1282 189.148 45.0926 193.755 46.6785 197.852C48.2644 201.949 52.8711 203.984 56.968 202.398Z" fill="#EBEBEB"/>
<path d="M321.654 400.505C322.623 396.188 319.909 391.903 315.592 390.934C311.275 389.964 306.989 392.678 306.02 396.996C305.051 401.313 307.765 405.598 312.082 406.567C316.399 407.536 320.685 404.822 321.654 400.505Z" fill="#EBEBEB"/>
<path d="M104.823 109.325C98.07 101.563 97.8178 90.8408 101.909 82.659C103.988 78.5666 106.979 75.0066 110.652 72.2536C114.324 69.5006 118.581 67.6282 123.092 66.781C131.115 65.352 140.063 67.1172 146.974 62.8021C155.306 57.5904 156.688 46.2423 161.657 37.7709C164.898 32.4647 169.633 28.2331 175.269 25.6063C180.905 22.9795 187.19 22.0744 193.338 23.0044C211.364 26.0399 223.46 45.8687 221.433 64.035C219.406 82.2013 205.891 97.659 189.677 105.981C173.462 114.303 151.794 119.636 133.525 119.991C122.952 120.243 112.688 116.417 104.86 109.306" fill="#EBEBEB"/>
<path d="M345.58 379.568C349.475 386.358 358.6 392.084 364.017 393.261L363.896 393.205C374.17 396.614 385.565 396.1 395.867 392.719C407.84 388.805 418.385 381.305 427.473 372.582C440.409 360.169 450.973 344.478 453.868 326.816C456.763 309.154 450.804 289.372 436.281 278.846C430.994 275.016 424.854 272.531 418.391 271.605C411.929 270.678 405.338 271.339 399.188 273.529C393.038 275.719 387.514 279.373 383.091 284.175C378.669 288.978 375.482 294.784 373.805 301.094C370.873 312.152 372.554 324.621 366.623 334.4C361.224 343.292 350.54 348.055 345.468 357.134C343.595 360.58 342.623 364.443 342.643 368.365C342.662 372.287 343.673 376.141 345.58 379.568Z" fill="#EBEBEB"/>
<path d="M438.655 222.912C449.661 218.427 454.947 205.869 450.463 194.863C445.978 183.857 433.42 178.57 422.414 183.055C411.408 187.54 406.121 200.098 410.606 211.104C415.091 222.11 427.648 227.397 438.655 222.912Z" fill="#EBEBEB"/>
<path d="M94.0725 394.662C95.2233 395.141 96.2666 395.846 97.1408 396.734C98.0151 397.623 98.7026 398.678 99.1628 399.836C100.057 402.164 100.412 404.665 100.2 407.149C99.9193 411.959 97.4722 416.919 94.7543 420.898C90.542 417.61 89.2904 411.558 88.8421 408.42C88.1416 403.488 89.8602 394.148 94.0725 394.662Z" fill="#FF955E"/>
<path d="M99.8539 428.519C99.5073 427.169 99.5234 425.752 99.9007 424.41C100.278 423.069 101.003 421.85 102.002 420.879C103.019 419.933 104.214 419.198 105.518 418.717C106.821 418.236 108.207 418.018 109.596 418.077C110.237 418.033 110.88 418.13 111.48 418.361C112.08 418.592 112.623 418.951 113.07 419.413C113.411 419.91 113.612 420.488 113.655 421.089C113.698 421.69 113.58 422.291 113.313 422.831C112.757 423.904 111.929 424.812 110.913 425.465C107.55 427.837 103.861 429.519 99.8539 428.557" fill="#FF955E"/>
<path d="M95.5015 443.435C95.4988 443.103 95.5301 442.771 95.5949 442.445C95.679 441.754 95.791 440.848 95.9311 439.774C96.2201 436.796 96.9898 433.885 98.2101 431.153C99.4789 428.42 101.456 426.075 103.936 424.363C104.69 423.862 105.498 423.449 106.345 423.13C106.644 423.018 106.896 422.962 107.055 422.915C107.136 422.883 107.221 422.864 107.307 422.859C106.174 423.321 105.088 423.894 104.066 424.568C101.678 426.309 99.7699 428.626 98.5183 431.302C97.3201 434.007 96.5301 436.875 96.174 439.811C95.9965 440.932 95.8471 441.838 95.7257 442.464C95.6782 442.793 95.6032 443.118 95.5015 443.435Z" fill="#263238"/>
<path d="M93.4 401.891C93.4318 402.029 93.4537 402.17 93.4653 402.311C93.5027 402.629 93.5494 403.04 93.6055 403.544C93.7269 404.609 93.867 406.15 94.0351 408.055C94.3713 411.875 94.7543 417.162 95.0531 422.999C95.352 428.837 95.4828 434.133 95.5388 437.943C95.5388 439.858 95.5388 441.408 95.5388 442.473C95.5388 442.987 95.5388 443.407 95.5388 443.715C95.5507 443.858 95.5507 444.002 95.5388 444.145C95.5096 444.004 95.494 443.86 95.4921 443.715V442.483C95.4921 441.362 95.4174 439.83 95.3614 437.943C95.24 434.114 95.0625 428.827 94.7636 422.999C94.4647 417.171 94.1285 411.885 93.8296 408.055C93.6988 406.187 93.5868 404.646 93.5121 403.535C93.5121 403.03 93.456 402.601 93.4373 402.302C93.4024 402.168 93.3898 402.029 93.4 401.891Z" fill="#263238"/>
<path d="M93.0638 431.807C92.4207 428.941 91.1043 426.269 89.2235 424.013C87.3427 421.757 84.9515 419.982 82.248 418.834C80.8657 418.264 79.0911 417.9 78.0357 418.992C76.9803 420.085 77.3352 421.794 77.9516 423.195C79.2899 426.013 81.4319 428.371 84.1078 429.973C86.7837 431.575 89.8738 432.35 92.989 432.199" fill="#FF955E"/>
<path d="M83.126 423.326C83.4261 423.401 83.7173 423.507 83.9946 423.644C84.2748 423.765 84.611 423.905 84.9846 424.111C85.3582 424.316 85.8066 424.512 86.2549 424.811C86.7599 425.113 87.2493 425.44 87.7213 425.792C88.2658 426.191 88.7896 426.618 89.2904 427.071C90.4358 428.121 91.4603 429.296 92.3446 430.574C93.1984 431.866 93.9034 433.251 94.4461 434.702C94.6741 435.339 94.8674 435.987 95.0251 436.645C95.1706 437.214 95.2829 437.791 95.3614 438.373C95.4356 438.849 95.4823 439.33 95.5015 439.811C95.5281 440.175 95.5281 440.54 95.5015 440.904C95.5275 441.215 95.5275 441.527 95.5015 441.838C95.4174 441.838 95.5015 440.502 95.1372 438.41C95.0345 437.887 94.9411 437.308 94.7636 436.71C94.5947 436.077 94.392 435.454 94.1565 434.842C93.61 433.423 92.9116 432.067 92.0737 430.798C91.2084 429.547 90.2128 428.392 89.1036 427.352C88.6179 426.9 88.1098 426.473 87.5812 426.072C87.1263 425.711 86.6524 425.374 86.1615 425.063C84.3495 423.877 83.126 423.392 83.126 423.326Z" fill="#263238"/>
<path d="M88.2444 204.938C88.2444 204.938 72.9828 71.0774 210.327 68.0699C347.672 65.0624 333.139 203.435 327.32 222.236C321.501 241.037 293.874 295.471 290.969 320.306C288.064 345.141 291.903 419.74 293.771 444.126H152.382L152.915 370.406C152.915 370.406 101.32 378.681 91.8776 355.368C82.4349 332.056 83.126 286.906 83.126 286.906C83.126 286.906 54.7885 286.906 52.6029 282.395C50.4173 277.884 88.2444 204.938 88.2444 204.938Z" fill="#FF955E"/>
<path d="M88.2444 204.938C88.2444 204.938 72.9828 71.0774 210.327 68.0699C347.672 65.0624 333.139 203.435 327.32 222.236C321.501 241.037 293.874 295.471 290.969 320.306C288.064 345.141 291.903 419.74 293.771 444.126H152.382L152.915 370.406C152.915 370.406 101.32 378.681 91.8776 355.368C82.4349 332.056 83.126 286.906 83.126 286.906C83.126 286.906 54.7885 286.906 52.6029 282.395C50.4173 277.884 88.2444 204.938 88.2444 204.938Z" fill="#FF955E"/>
<g opacity="0.7">
<path opacity="0.7" d="M88.2444 204.938C88.2444 204.938 72.9828 71.0774 210.327 68.0699C347.672 65.0624 333.139 203.435 327.32 222.236C321.501 241.037 293.874 295.471 290.969 320.306C288.064 345.141 291.903 419.74 293.771 444.126H152.382L152.915 370.406C152.915 370.406 101.32 378.681 91.8776 355.368C82.4349 332.056 83.126 286.906 83.126 286.906C83.126 286.906 54.7885 286.906 52.6029 282.395C50.4173 277.884 88.2444 204.938 88.2444 204.938Z" fill="white"/>
</g>
<path d="M160.237 122.69C152.373 120.729 141.987 116.61 133.534 124.175C129.219 128.042 126.8 136.588 126.51 142.463C122.291 142.766 118.192 144.01 114.516 146.103C110.839 148.196 107.677 151.085 105.262 154.558C102.676 158.079 101.276 162.332 101.264 166.7C101.414 171.053 103.609 175.461 107.354 177.525C105.318 180.549 104.141 184.069 103.949 187.709C103.756 191.349 104.556 194.973 106.261 198.195C108.015 201.33 110.618 203.908 113.769 205.633C116.921 207.357 120.495 208.159 124.082 207.946C123.522 211.711 123.912 215.556 125.217 219.132C126.522 222.707 128.7 225.9 131.554 228.419C134.414 230.832 137.854 232.458 141.534 233.138C145.214 233.818 149.007 233.527 152.541 232.295C159.35 242.373 174.957 244.577 184.148 236.76C185.296 235.826 186.436 234.639 187.884 234.378C189.171 234.285 190.461 234.536 191.62 235.106C197.765 237.469 204.331 239.524 210.804 238.45C217.276 237.376 223.572 232.276 224.02 225.561C231.095 229.414 239.015 231.455 247.071 231.501C256.28 231.501 267.012 227.326 268.973 218.108C271.695 220.222 274.966 221.51 278.398 221.82C281.83 222.13 285.279 221.447 288.335 219.854C291.378 218.137 293.887 215.612 295.583 212.557C297.279 209.502 298.097 206.038 297.946 202.547C305.754 204.06 312.404 196.084 314.487 188.229C316.514 180.589 315.954 172.015 311.825 165.327C307.697 158.64 299.73 154.297 292.127 155.707C294.123 152.749 295.303 149.316 295.547 145.756C295.791 142.195 295.092 138.633 293.519 135.43C291.901 132.297 289.456 129.667 286.45 127.825C283.443 125.982 279.99 124.998 276.464 124.979C275.604 122.2 274.081 119.672 272.026 117.614C269.97 115.555 267.445 114.028 264.668 113.163C261.898 112.381 258.977 112.299 256.168 112.925C253.359 113.551 250.75 114.865 248.575 116.75C246.209 112.789 242.968 109.422 239.101 106.906C235.233 104.39 230.842 102.793 226.262 102.236C221.688 101.781 217.072 102.387 212.771 104.007C208.47 105.627 204.601 108.217 201.464 111.576C195.225 106.084 183.942 103.076 176.115 105.673C172.228 106.898 168.724 109.107 165.942 112.085C163.16 115.063 161.195 118.71 160.237 122.672" fill="#FF955E"/>
<g opacity="0.3">
<path opacity="0.3" d="M160.237 122.69C152.373 120.729 141.987 116.61 133.534 124.175C129.219 128.042 126.8 136.588 126.51 142.463C122.291 142.766 118.192 144.01 114.516 146.103C110.839 148.196 107.677 151.085 105.262 154.558C102.676 158.079 101.276 162.332 101.264 166.7C101.414 171.053 103.609 175.461 107.354 177.525C105.318 180.549 104.141 184.069 103.949 187.709C103.756 191.349 104.556 194.973 106.261 198.195C108.015 201.33 110.618 203.908 113.769 205.633C116.921 207.357 120.495 208.159 124.082 207.946C123.522 211.711 123.912 215.556 125.217 219.132C126.522 222.707 128.7 225.9 131.554 228.419C134.414 230.832 137.854 232.458 141.534 233.138C145.214 233.818 149.007 233.527 152.541 232.295C159.35 242.373 174.957 244.577 184.148 236.76C185.296 235.826 186.436 234.639 187.884 234.378C189.171 234.285 190.461 234.536 191.62 235.106C197.765 237.469 204.331 239.524 210.804 238.45C217.276 237.376 223.572 232.276 224.02 225.561C231.095 229.414 239.015 231.455 247.071 231.501C256.28 231.501 267.012 227.326 268.973 218.108C271.695 220.222 274.966 221.51 278.398 221.82C281.83 222.13 285.279 221.447 288.335 219.854C291.378 218.137 293.887 215.612 295.583 212.557C297.279 209.502 298.097 206.038 297.946 202.547C305.754 204.06 312.404 196.084 314.487 188.229C316.514 180.589 315.954 172.015 311.825 165.327C307.697 158.64 299.73 154.297 292.127 155.707C294.123 152.749 295.303 149.316 295.547 145.756C295.791 142.195 295.092 138.633 293.519 135.43C291.901 132.297 289.456 129.667 286.45 127.825C283.443 125.982 279.99 124.998 276.464 124.979C275.604 122.2 274.081 119.672 272.026 117.614C269.97 115.555 267.445 114.028 264.668 113.163C261.898 112.381 258.977 112.299 256.168 112.925C253.359 113.551 250.75 114.865 248.575 116.75C246.209 112.789 242.968 109.422 239.101 106.906C235.233 104.39 230.842 102.793 226.262 102.236C221.688 101.781 217.072 102.387 212.771 104.007C208.47 105.627 204.601 108.217 201.464 111.576C195.225 106.084 183.942 103.076 176.115 105.673C172.228 106.898 168.724 109.107 165.942 112.085C163.16 115.063 161.195 118.71 160.237 122.672" fill="white"/>
</g>
<path d="M153.428 139.81C152.628 139.759 151.824 139.813 151.037 139.969C148.863 140.502 146.94 141.769 145.592 143.556C143.808 145.797 142.725 149.16 142.323 153.036C142.056 155.068 142.037 157.126 142.267 159.163C142.47 161.384 143.396 163.477 144.901 165.122L145.228 165.458L144.761 165.533C140.524 166.289 136.695 168.531 133.964 171.856C132.625 173.466 131.581 175.3 130.881 177.273C129.971 179.95 129.667 182.795 129.99 185.604C130.313 188.413 131.255 191.115 132.749 193.515L132.918 193.777L132.619 193.842C131.105 194.244 129.723 195.037 128.612 196.14C127.614 197.118 126.784 198.254 126.155 199.502C125.168 201.572 124.561 203.803 124.362 206.087C124.147 207.955 124.119 209.487 124.082 210.514C124.082 210.991 124.082 211.383 124.082 211.682C124.104 211.815 124.104 211.95 124.082 212.083C124.07 211.95 124.07 211.815 124.082 211.682C124.082 211.374 124.082 210.991 124.082 210.505C124.056 209.021 124.109 207.537 124.241 206.059C124.401 203.734 124.987 201.458 125.969 199.344C126.602 198.048 127.449 196.867 128.472 195.85C129.618 194.707 131.045 193.886 132.609 193.469L132.479 193.796C130.939 191.34 129.965 188.572 129.629 185.693C129.293 182.814 129.603 179.896 130.536 177.152C131.251 175.111 132.323 173.213 133.702 171.548C136.505 168.109 140.449 165.789 144.817 165.01L144.686 165.43C143.116 163.704 142.152 161.514 141.94 159.191C141.717 157.115 141.748 155.02 142.033 152.952C142.472 149.048 143.621 145.601 145.48 143.332C146.875 141.525 148.857 140.263 151.084 139.764C151.86 139.611 152.659 139.627 153.428 139.81Z" fill="#FF955E"/>
<path d="M173.07 197.933C172.624 198.19 172.155 198.406 171.669 198.578C170.375 199.116 169.053 199.587 167.709 199.988C165.706 200.614 163.614 200.904 161.517 200.847C160.266 200.796 159.033 200.54 157.865 200.091C156.617 199.6 155.454 198.916 154.418 198.064C152.3 196.564 150.627 194.518 149.58 192.142C148.837 190.152 148.672 187.993 149.104 185.913C149.373 184.518 149.923 183.193 150.72 182.018C150.935 181.703 151.175 181.406 151.439 181.131C151.626 180.934 151.719 180.841 151.738 180.85C151.756 180.86 151.401 181.289 150.888 182.13C150.013 183.6 149.48 185.249 149.33 186.953C149.179 188.657 149.415 190.374 150.019 191.974C151.047 194.249 152.658 196.211 154.689 197.662C156.603 199.279 158.988 200.232 161.489 200.38C163.542 200.456 165.595 200.204 167.569 199.633C169.269 199.185 170.614 198.699 171.548 198.391C172.042 198.196 172.551 198.043 173.07 197.933Z" fill="#FF955E"/>
<path d="M258.447 180.692C258.459 180.778 258.459 180.866 258.447 180.953C258.447 181.149 258.382 181.411 258.326 181.738C258.214 182.42 258.046 183.438 257.784 184.745C257.481 186.352 257.085 187.939 256.598 189.499C255.955 191.608 254.991 193.605 253.74 195.421C252.164 197.637 250.168 199.522 247.865 200.969C245.229 202.728 242.295 203.994 239.207 204.705C237.511 205.094 235.772 205.267 234.032 205.218C232.202 205.128 230.388 204.83 228.625 204.331C224.878 203.236 221.331 201.549 218.117 199.334L218.491 199.176C217.827 203.07 217.136 207.264 215.091 211.121C214.558 212.083 213.932 212.99 213.223 213.83C212.492 214.672 211.665 215.424 210.757 216.072C208.872 217.303 206.76 218.147 204.546 218.556C200.779 219.284 196.892 219.092 193.216 217.996C189.539 216.9 186.181 214.933 183.428 212.261L183.839 212.121C183.521 214.22 182.625 216.189 181.252 217.809C179.955 219.386 178.33 220.662 176.489 221.545C173.011 223.068 169.122 223.375 165.449 222.413C162.205 221.631 159.134 220.256 156.389 218.36C153.969 216.768 151.995 214.586 150.654 212.018C150.098 210.906 149.728 209.71 149.561 208.478C149.432 207.386 149.47 206.281 149.674 205.2C149.985 203.476 150.745 201.866 151.878 200.53C152.592 199.708 153.492 199.068 154.502 198.662C154.849 198.52 155.209 198.414 155.576 198.344C155.576 198.344 155.203 198.456 154.53 198.746C153.555 199.166 152.689 199.805 151.999 200.614C150.919 201.948 150.199 203.536 149.907 205.228C149.506 207.49 149.863 209.822 150.925 211.859C152.251 214.346 154.177 216.462 156.529 218.014C159.243 219.864 162.272 221.203 165.467 221.965C169.049 222.878 172.832 222.569 176.218 221.087C177.985 220.237 179.549 219.017 180.804 217.51C182.12 215.954 182.977 214.062 183.279 212.046L183.354 211.57L183.699 211.906C186.309 214.46 189.492 216.353 192.983 217.426C196.667 218.579 200.58 218.794 204.369 218.052C206.531 217.656 208.593 216.83 210.43 215.623C211.305 215.005 212.101 214.284 212.803 213.475C213.483 212.66 214.084 211.781 214.596 210.851C216.595 207.115 217.286 202.949 217.958 199.073L218.014 198.699L218.323 198.905C221.493 201.099 224.993 202.776 228.69 203.874C230.416 204.367 232.193 204.661 233.986 204.751C235.69 204.808 237.394 204.648 239.057 204.275C242.104 203.589 245.003 202.358 247.613 200.642C249.892 199.232 251.872 197.388 253.441 195.215C254.692 193.434 255.662 191.472 256.318 189.397C256.824 187.849 257.242 186.275 257.569 184.68C257.859 183.382 258.055 182.373 258.195 181.691L258.354 180.925C258.376 180.844 258.408 180.766 258.447 180.692Z" fill="#FF955E"/>
<path d="M263.173 151.205C263.386 151.199 263.6 151.218 263.808 151.261C264.014 151.261 264.275 151.308 264.574 151.364L265.611 151.616C267.79 152.243 269.809 153.329 271.532 154.801C274.098 156.978 276.162 159.683 277.585 162.731C278.427 164.531 279.093 166.407 279.574 168.335C279.839 169.36 279.98 170.414 279.995 171.473C279.958 172.552 279.861 173.627 279.705 174.695C279.424 176.822 278.743 178.875 277.697 180.748C276.678 182.468 275.325 183.967 273.718 185.156C271.044 187.192 267.998 188.686 264.752 189.555C262.56 190.083 260.307 190.306 258.055 190.218C257.261 190.218 256.645 190.144 256.187 190.106C255.976 190.098 255.766 190.067 255.561 190.013C255.772 189.99 255.985 189.99 256.196 190.013C256.617 190.013 257.224 190.013 258.064 190.013C263.643 190.106 269.081 188.257 273.447 184.783C274.992 183.622 276.293 182.168 277.277 180.505C278.283 178.681 278.938 176.686 279.21 174.621C280.144 170.352 278.65 166.327 277.165 162.955C275.786 159.954 273.791 157.278 271.308 155.1C269.634 153.634 267.68 152.522 265.564 151.831L264.556 151.542L263.799 151.383C263.585 151.344 263.375 151.285 263.173 151.205Z" fill="#FF955E"/>
<path d="M295.742 165.906C295.986 166.254 296.178 166.634 296.312 167.037C296.721 168.12 296.957 169.261 297.012 170.418C297.102 172.144 296.834 173.871 296.228 175.489C295.513 177.496 294.259 179.267 292.604 180.608C291.742 181.283 290.801 181.851 289.802 182.298C288.879 182.736 287.902 183.05 286.897 183.232C285.188 183.563 283.422 183.421 281.788 182.821C280.702 182.404 279.713 181.768 278.883 180.953C278.658 180.735 278.449 180.501 278.257 180.253C278.182 180.172 278.119 180.081 278.071 179.982C278.404 180.229 278.717 180.504 279.005 180.804C279.858 181.54 280.839 182.113 281.9 182.494C283.477 183.02 285.166 183.12 286.794 182.784C287.765 182.597 288.707 182.283 289.596 181.85C290.557 181.418 291.46 180.869 292.286 180.215C293.869 178.928 295.082 177.242 295.798 175.33C296.401 173.774 296.69 172.114 296.648 170.446C296.58 168.895 296.275 167.364 295.742 165.906Z" fill="#FF955E"/>
<path d="M278.071 125.502C277.481 125.359 276.881 125.259 276.277 125.203C275.54 125.164 274.8 125.211 274.073 125.343C273.079 125.557 272.121 125.909 271.224 126.389C268.743 127.744 266.748 129.84 265.518 132.385C263.967 135.318 263.089 139.054 262.286 143.201L262.211 143.602L261.996 143.257C259.941 140.05 257.119 137.405 253.787 135.561C249.978 133.393 245.6 132.436 241.234 132.815C236.375 133.268 231.79 135.272 228.158 138.531C226.195 140.218 224.605 142.295 223.488 144.63C222.275 147.017 221.989 149.768 222.684 152.354L223.133 153.802L222.255 152.569C220.299 149.933 217.738 147.807 214.787 146.37C211.837 144.933 208.583 144.227 205.303 144.312C204.545 144.34 203.79 144.415 203.042 144.536C201.531 144.764 200.056 145.184 198.653 145.788C197.239 146.422 195.904 147.218 194.674 148.16C193.453 149.14 192.341 150.249 191.358 151.467C189.587 153.706 188.261 156.265 187.454 159.004C186.693 161.686 186.483 164.495 186.837 167.261L186.893 167.662L186.511 167.532C183.431 166.429 180.139 166.052 176.89 166.429C173.754 166.829 170.854 168.309 168.69 170.614C167.679 171.736 166.903 173.048 166.406 174.474C165.909 175.899 165.701 177.41 165.794 178.917C165.928 181.844 167.081 184.633 169.054 186.8C170.91 188.87 173.344 190.337 176.04 191.012C178.602 191.601 181.245 191.752 183.858 191.461C186.315 191.273 188.717 190.64 190.947 189.593C193.011 188.617 194.733 187.042 195.888 185.072L196.009 184.857L196.177 185.044C197.818 186.839 199.948 188.115 202.304 188.715C204.396 189.264 206.598 189.235 208.674 188.631C210.472 188.103 212.088 187.088 213.344 185.698C214.396 184.517 215.202 183.139 215.717 181.644C216.46 179.584 216.6 177.355 216.118 175.218C215.921 174.482 215.671 173.761 215.371 173.061L215.633 173.584C215.881 174.098 216.075 174.636 216.212 175.19C216.747 177.353 216.64 179.625 215.903 181.728C215.389 183.251 214.58 184.657 213.522 185.866C212.24 187.305 210.585 188.362 208.74 188.92C206.612 189.552 204.352 189.594 202.202 189.042C199.782 188.435 197.591 187.137 195.897 185.306H196.177C194.993 187.338 193.222 188.966 191.096 189.976C188.831 191.07 186.384 191.738 183.877 191.946C181.215 192.249 178.522 192.101 175.91 191.507C173.129 190.815 170.619 189.309 168.699 187.183C166.66 184.947 165.464 182.07 165.318 179.048C165.22 177.479 165.435 175.907 165.949 174.422C166.464 172.938 167.268 171.57 168.316 170.399C170.559 168.009 173.564 166.473 176.816 166.056C180.139 165.661 183.508 166.041 186.66 167.167L186.324 167.447C185.962 164.61 186.178 161.728 186.959 158.976C187.78 156.17 189.138 153.55 190.956 151.261C191.963 150.011 193.103 148.874 194.356 147.871C195.617 146.902 196.987 146.083 198.438 145.433C199.883 144.812 201.402 144.378 202.958 144.144C203.725 144.023 204.499 143.948 205.275 143.92C206.044 143.9 206.814 143.922 207.582 143.985C210.55 144.212 213.434 145.081 216.034 146.533C218.634 147.984 220.887 149.983 222.638 152.391L222.208 152.597C221.484 149.898 221.783 147.027 223.049 144.536C224.209 142.121 225.86 139.974 227.896 138.232C231.608 134.92 236.288 132.893 241.243 132.451C245.688 132.063 250.145 133.04 254.02 135.253C257.396 137.139 260.247 139.839 262.314 143.107L262.024 143.154C262.837 139.007 263.743 135.243 265.34 132.282C266.614 129.712 268.658 127.603 271.187 126.249C272.1 125.772 273.079 125.432 274.092 125.24C274.831 125.106 275.584 125.069 276.333 125.128C276.789 125.169 277.239 125.254 277.678 125.38C277.93 125.446 278.071 125.502 278.071 125.502Z" fill="#FF955E"/>
<path d="M256.85 165.393C256.854 165.91 256.804 166.427 256.701 166.934C256.51 168.337 256.214 169.723 255.813 171.081C255.257 173.141 254.146 175.008 252.6 176.479C250.548 178.099 248.061 179.074 245.455 179.281C242.866 179.625 240.232 179.26 237.834 178.226C235.884 177.354 234.213 175.961 233.005 174.2C232.186 173.029 231.623 171.699 231.352 170.296C231.274 169.918 231.231 169.533 231.221 169.147C231.196 169.012 231.196 168.872 231.221 168.736C231.221 168.736 231.296 169.287 231.52 170.25C231.867 171.594 232.462 172.861 233.276 173.986C234.484 175.651 236.116 176.964 238.002 177.787C240.336 178.744 242.882 179.066 245.381 178.721C247.888 178.509 250.282 177.579 252.273 176.04C253.772 174.629 254.871 172.848 255.458 170.875C255.881 169.543 256.224 168.186 256.486 166.812C256.576 166.332 256.698 165.858 256.85 165.393Z" fill="#FF955E"/>
<path d="M250.256 115.816C249.9 116.013 249.528 116.182 249.145 116.32C248.416 116.629 247.361 117.086 246.062 117.721C244.49 118.415 243.019 119.32 241.691 120.411C240.923 121.087 240.346 121.954 240.019 122.924C239.83 123.439 239.749 123.988 239.781 124.536C239.813 125.084 239.958 125.619 240.206 126.109L239.805 126.37C238.226 124.175 235.508 122.634 232.529 121.84C229.39 120.932 226.127 120.528 222.862 120.645C220.203 120.837 217.644 121.733 215.446 123.241C213.956 124.264 212.646 125.526 211.57 126.977C210.813 128.005 210.477 128.63 210.43 128.602C210.49 128.442 210.562 128.286 210.645 128.135C210.87 127.695 211.126 127.27 211.411 126.865C212.701 124.98 214.394 123.405 216.369 122.254C218.343 121.104 220.548 120.408 222.824 120.215C224.426 120.1 226.035 120.157 227.625 120.383C229.329 120.595 231.015 120.932 232.669 121.392C235.704 122.233 238.544 123.802 240.197 126.118L239.795 126.38C239.519 125.832 239.359 125.233 239.325 124.621C239.291 124.008 239.385 123.396 239.599 122.821C239.968 121.78 240.614 120.86 241.467 120.159C242.834 119.058 244.354 118.161 245.978 117.497C247.305 116.89 248.388 116.47 249.135 116.208C249.497 116.047 249.872 115.915 250.256 115.816Z" fill="#FF955E"/>
<path d="M165.897 153.101C165.389 152.516 164.97 151.858 164.655 151.149C163.9 149.478 163.537 147.657 163.595 145.824C163.654 143.991 164.131 142.196 164.991 140.576C165.838 139.05 167.059 137.764 168.54 136.84C170.202 135.8 172.102 135.202 174.06 135.103C176.194 134.973 178.318 135.484 180.159 136.569L179.823 136.924C178.729 135.29 178.047 133.415 177.834 131.461C177.303 126.702 178.58 121.919 181.411 118.058C183.682 114.888 186.983 112.607 190.751 111.604C193.266 110.917 195.911 110.853 198.456 111.417C199.144 111.564 199.819 111.767 200.474 112.024C200.704 112.105 200.927 112.208 201.137 112.332C201.137 112.388 200.203 111.959 198.419 111.613C195.295 111.027 192.068 111.35 189.122 112.541C186.175 113.733 183.632 115.745 181.794 118.338C179.061 122.117 177.832 126.778 178.347 131.414C178.541 133.288 179.181 135.088 180.215 136.663L180.86 137.597L179.926 137.008C178.168 135.973 176.144 135.479 174.107 135.589C172.225 135.673 170.396 136.236 168.793 137.223C167.36 138.114 166.177 139.355 165.355 140.829C164.649 142.107 164.192 143.508 164.01 144.957C163.737 147.051 164.02 149.181 164.832 151.131C165.411 152.429 165.944 153.073 165.897 153.101Z" fill="#FF955E"/>
<path d="M119.076 165.262C119.076 165.262 119.169 165.262 119.356 165.262C119.632 165.3 119.9 165.382 120.15 165.505C121.093 165.937 121.872 166.661 122.373 167.569C122.763 168.233 123.017 168.968 123.121 169.731C123.225 170.494 123.177 171.27 122.98 172.015C122.464 173.831 121.319 175.404 119.748 176.451C118.184 177.465 116.4 178.089 114.546 178.273C113.057 178.459 111.551 178.459 110.063 178.273C109.048 178.14 108.074 177.793 107.205 177.255C106.883 177.064 106.6 176.814 106.373 176.517C107.479 177.293 108.765 177.772 110.109 177.908C111.569 178.041 113.039 178 114.49 177.787C116.259 177.586 117.959 176.982 119.459 176.022C120.933 175.038 122.019 173.572 122.532 171.875C122.913 170.483 122.742 168.997 122.055 167.728C121.612 166.858 120.919 166.139 120.066 165.664C119.459 165.374 119.057 165.318 119.076 165.262Z" fill="#FF955E"/>
<path d="M155.231 235.667C154.957 235.531 154.705 235.354 154.484 235.144C153.852 234.592 153.291 233.964 152.812 233.276C151.202 231.042 150.201 228.429 149.907 225.692C149.728 224.19 149.772 222.67 150.038 221.181C150.262 219.97 150.639 218.794 151.159 217.678C151.534 216.601 152.177 215.637 153.027 214.876C152.88 215.138 152.718 215.39 152.541 215.633C152.127 216.328 151.771 217.056 151.476 217.809C151.011 218.915 150.675 220.072 150.477 221.255C150.25 222.702 150.222 224.172 150.393 225.626C150.68 228.296 151.602 230.858 153.083 233.098C153.736 234.005 154.454 234.864 155.231 235.667Z" fill="#FF955E"/>
<path d="M188.603 223.74C188.932 224.314 189.142 224.95 189.219 225.608C189.483 227.22 189.394 228.871 188.958 230.446C188.525 232.021 187.75 233.482 186.688 234.724C186.281 235.265 185.762 235.711 185.166 236.031C185.11 235.966 185.679 235.461 186.408 234.499C187.348 233.245 188.045 231.826 188.463 230.315C188.877 228.795 189.013 227.213 188.864 225.645C188.743 225.015 188.656 224.379 188.603 223.74Z" fill="#FF955E"/>
<path d="M225.159 212.373C225.336 212.663 225.468 212.978 225.552 213.307C225.849 214.153 226.077 215.021 226.233 215.903C226.757 218.829 226.623 221.834 225.841 224.702C225.048 227.569 223.611 230.217 221.638 232.445C221.045 233.119 220.399 233.743 219.705 234.313C219.467 234.543 219.192 234.732 218.892 234.873C218.836 234.798 219.938 233.939 221.358 232.22C223.207 229.981 224.566 227.378 225.346 224.58C226.108 221.776 226.289 218.846 225.879 215.969C225.561 213.709 225.094 212.401 225.159 212.373Z" fill="#FF955E"/>
<path d="M266.694 198.942C266.694 198.942 266.881 199.157 267.133 199.605C267.489 200.227 267.802 200.873 268.067 201.539C269.948 205.953 270.563 210.804 269.842 215.549C269.737 216.263 269.591 216.971 269.403 217.669C269.357 217.932 269.265 218.185 269.132 218.416C269.048 218.416 269.291 217.295 269.487 215.502C269.995 210.844 269.403 206.132 267.759 201.744C267.124 200.016 266.62 199.007 266.694 198.942Z" fill="#FF955E"/>
<path d="M203.491 92.466C201.792 90.9387 199.846 89.7103 197.737 88.8327C195.685 87.746 193.481 86.9746 191.199 86.5444C185.063 85.6104 179.141 89.0195 175.041 92.9984C170.941 96.9772 167.849 101.722 163.058 105.14L175.443 104.935C179.179 104.87 182.999 104.795 186.398 103.515C190.732 101.899 194.029 97.9112 198.737 97.4629C201.325 97.387 203.91 97.7019 206.405 98.3969C206.11 96.154 205.086 94.0701 203.491 92.466ZM190.956 97.3508C190.624 97.5476 190.238 97.6327 189.854 97.5936C189.544 97.5546 189.23 97.5546 188.92 97.5936C188.173 97.7431 187.79 98.5837 187.164 99.0133C186.91 99.1965 186.608 99.3027 186.295 99.3193C185.982 99.3358 185.671 99.262 185.399 99.1067C185.131 98.934 184.928 98.6765 184.823 98.3752C184.718 98.0739 184.717 97.7462 184.82 97.4442C184.944 97.1822 185.118 96.9472 185.334 96.753C185.871 96.2415 186.506 95.8443 187.202 95.5855C187.614 95.2573 188.104 95.0417 188.625 94.9599C189.146 94.878 189.679 94.9327 190.172 95.1185C190.807 95.3053 191.498 95.7256 191.535 96.4075C191.518 96.5936 191.456 96.7729 191.355 96.9305C191.255 97.088 191.118 97.2193 190.956 97.3134V97.3508Z" fill="#455A64"/>
<path d="M178.011 97.5563C178.011 97.5563 178.282 97.4069 178.777 97.0893C179.272 96.7717 179.963 96.258 180.822 95.5575C181.682 94.857 182.69 93.9324 183.942 92.9423C185.401 91.8422 187.065 91.0451 188.836 90.598C189.865 90.3406 190.923 90.2181 191.984 90.2337C193.128 90.2702 194.265 90.4331 195.374 90.7194C197.822 91.3582 200.129 92.4513 202.174 93.9417C204.441 95.5784 206.374 97.6326 207.871 99.994C209.488 102.502 210.79 105.2 211.747 108.026C213.774 113.808 214.736 119.561 215.857 124.698C216.978 129.835 217.884 134.505 218.659 138.419C219.434 142.332 220.088 145.442 220.527 147.675C220.732 148.739 220.891 149.543 221.012 150.197C221.012 150.458 221.097 150.673 221.125 150.86C221.131 150.934 221.131 151.009 221.125 151.084C221.088 151.017 221.063 150.944 221.05 150.869L220.882 150.215L220.303 147.712C219.817 145.489 219.126 142.351 218.276 138.494C217.426 134.636 216.408 129.947 215.324 124.801C214.241 119.655 213.204 113.92 211.196 108.195C209.188 102.469 206.134 97.3508 201.856 94.3247C199.864 92.8567 197.615 91.7734 195.225 91.1304C193.154 90.5319 190.966 90.4677 188.864 90.9436C187.136 91.3562 185.506 92.1018 184.063 93.1385C182.812 94.0725 181.794 95.0065 180.897 95.679C180.224 96.2113 179.515 96.698 178.777 97.136C178.585 97.253 178.386 97.356 178.179 97.4442L178.011 97.5563Z" fill="#263238"/>
<path d="M233.565 110.558C233.151 111.663 232.98 112.845 233.062 114.023C233.144 115.201 233.478 116.347 234.042 117.385C235.256 119.318 237.432 120.318 239.431 121.364C242.522 122.967 245.453 124.862 248.183 127.024C248.771 125.772 248.323 124.278 247.828 122.98C247.398 121.85 246.95 120.729 246.473 119.617C245.268 116.815 243.839 113.957 241.476 112.061C239.113 110.165 236.059 108.839 233.565 110.558Z" fill="#455A64"/>
<path d="M240.626 116.274C240.626 116.274 240.29 115.844 239.692 115.097C238.82 114.049 237.826 113.108 236.732 112.295C235.115 111.087 233.225 110.295 231.23 109.988C228.795 109.611 226.307 110.139 224.235 111.473C222.249 112.94 220.673 114.892 219.658 117.142C218.753 118.954 217.976 120.826 217.332 122.746C216.888 124.04 216.596 125.382 216.464 126.744C216.38 127.678 216.408 128.248 216.361 128.248C216.318 128.121 216.295 127.989 216.296 127.855C216.269 127.479 216.269 127.101 216.296 126.725C216.356 125.336 216.598 123.961 217.015 122.634C217.621 120.672 218.373 118.758 219.266 116.909C220.283 114.574 221.893 112.545 223.936 111.025C226.109 109.614 228.732 109.071 231.286 109.502C233.334 109.841 235.261 110.692 236.89 111.977C237.988 112.832 238.962 113.835 239.786 114.957C240.012 115.256 240.221 115.568 240.412 115.891C240.58 116.143 240.645 116.264 240.626 116.274Z" fill="#263238"/>
<path d="M161.909 158.5C161.42 158.044 160.834 157.704 160.196 157.506C159.557 157.309 158.882 157.258 158.221 157.357C157.56 157.457 156.93 157.705 156.379 158.082C155.827 158.459 155.367 158.957 155.035 159.537C154.613 160.5 154.367 161.531 154.306 162.581C154.161 163.356 154.161 164.151 154.306 164.926C154.442 165.301 154.554 165.685 154.642 166.075C154.675 166.555 154.615 167.037 154.465 167.494C154.214 168.242 154.075 169.022 154.054 169.811C154.046 170.205 154.139 170.594 154.324 170.942C154.508 171.29 154.779 171.585 155.109 171.8C155.408 171.896 155.685 172.052 155.922 172.258C156.101 172.535 156.183 172.863 156.155 173.192C156.155 174.462 156.221 175.732 156.249 177.002C157.121 176.365 157.798 175.496 158.202 174.494C158.607 173.492 158.723 172.397 158.537 171.333C158.36 170.694 158.241 170.041 158.182 169.381C158.182 167.933 159.312 166.644 159.191 165.197C159.07 163.749 157.939 162.805 157.669 161.461C157.571 160.953 157.606 160.428 157.769 159.937C157.933 159.447 158.22 159.006 158.603 158.659C159.001 158.325 159.485 158.109 160 158.035C160.515 157.961 161.04 158.031 161.517 158.238" fill="#455A64"/>
<path d="M213.512 117.086C213.006 116.382 212.325 115.821 211.537 115.459C210.748 115.098 209.879 114.948 209.014 115.024C208.15 115.1 207.321 115.4 206.608 115.895C205.895 116.389 205.322 117.06 204.948 117.843C204.625 118.781 204.176 119.67 203.612 120.486C202.407 121.812 200.156 121.597 198.942 122.905C198.538 123.373 198.25 123.93 198.101 124.53C197.791 125.612 197.707 126.745 197.855 127.861C198.002 128.976 198.379 130.049 198.961 131.012C199.811 132.385 201.1 133.543 201.473 135.131C201.95 137.186 200.819 139.67 202.127 141.296C203.65 139.716 204.706 137.745 205.178 135.602C205.649 133.459 205.518 131.227 204.798 129.154C204.561 128.647 204.434 128.097 204.425 127.538C204.593 125.67 207.404 125.539 208.553 124.054C209.393 122.97 209.169 121.42 209.216 120.038C209.263 118.655 210.019 116.974 211.374 117.049C212.308 117.049 213.335 117.889 213.933 117.198" fill="#455A64"/>
<path d="M235.919 160.349C235.508 161.04 235.097 161.956 235.583 162.6C235.798 162.89 236.143 163.048 236.377 163.319C236.909 163.973 236.582 164.944 236.302 165.738C236.022 166.532 235.938 167.606 236.666 168.027C237.105 168.251 237.6 168.101 238.105 168.167C238.526 168.259 238.913 168.47 239.219 168.774C239.525 169.079 239.738 169.464 239.833 169.885C240.016 170.736 240.042 171.613 239.907 172.472C241.299 171.763 241.691 169.932 241.775 168.344C241.896 167.571 241.704 166.781 241.243 166.149C241.019 165.916 240.739 165.766 240.533 165.514C240.019 164.879 240.262 163.945 240.468 163.151C240.673 162.357 240.729 161.283 240.047 160.891C239.59 160.611 238.908 160.695 238.6 160.256C238.151 159.621 239.113 158.733 238.413 158.388" fill="#455A64"/>
<path d="M266.835 167.354C265.942 164.726 264.399 162.367 262.349 160.496C260.3 158.624 257.811 157.301 255.113 156.65C252.89 156.155 250.443 156.202 248.528 157.51L248.089 157.678C247.781 160.592 247.538 163.777 249.145 166.196C251.694 170.044 257.551 170.025 260.465 173.621C262.585 176.264 262.482 180.159 263.995 183.176C265.733 180.976 266.902 178.381 267.397 175.621C267.892 172.861 267.699 170.021 266.835 167.354ZM254.048 164.552C253.932 164.953 253.684 165.303 253.346 165.546C253.007 165.79 252.597 165.914 252.18 165.897C251.768 165.856 251.375 165.702 251.045 165.451C250.716 165.201 250.462 164.863 250.312 164.477C250.163 164.082 250.099 163.66 250.124 163.238C250.15 162.816 250.265 162.404 250.461 162.03L250.555 162.208C250.932 161.976 251.368 161.857 251.81 161.867C252.253 161.876 252.684 162.012 253.051 162.259C253.418 162.506 253.707 162.854 253.882 163.26C254.057 163.667 254.111 164.115 254.039 164.552H254.048Z" fill="#455A64"/>
<path d="M261.249 168.624C261.119 168.495 261.009 168.347 260.922 168.185L260.063 166.859C259.031 165.236 257.849 163.713 256.532 162.31C254.465 160.356 252.008 158.86 249.322 157.921C247.764 157.318 246.116 156.977 244.446 156.912C242.664 156.868 240.901 157.297 239.338 158.154C236.097 159.947 233.911 162.88 232.155 165.542C230.593 167.934 229.252 170.463 228.148 173.098C227.421 174.879 226.798 176.7 226.28 178.553C225.897 179.87 225.729 180.608 225.682 180.598C225.684 180.412 225.709 180.227 225.757 180.047C225.813 179.692 225.925 179.169 226.084 178.506C226.548 176.621 227.141 174.771 227.859 172.967C228.92 170.288 230.236 167.717 231.791 165.29C233.556 162.591 235.76 159.574 239.132 157.706C240.772 156.807 242.623 156.362 244.493 156.417C246.216 156.486 247.915 156.846 249.518 157.482C252.256 158.464 254.751 160.025 256.831 162.058C258.136 163.491 259.288 165.056 260.268 166.728C260.614 167.317 260.876 167.784 261.044 168.101C261.138 168.264 261.207 168.441 261.249 168.624Z" fill="#263238"/>
<path d="M189.471 189.35C189.546 189.406 189.621 189.471 189.695 189.518L189.957 189.443L189.471 189.35Z" fill="#455A64"/>
<path d="M194.646 211.775C194.515 210.215 194.197 208.674 194.141 207.105C194.029 204.014 194.945 200.931 194.636 197.859C194.463 196.194 193.932 194.587 193.079 193.147C192.226 191.708 191.072 190.47 189.695 189.518C187.569 190.178 185.609 191.287 183.948 192.769C182.287 194.251 180.963 196.073 180.066 198.111C179.161 200.228 178.719 202.513 178.767 204.814C178.815 207.116 179.354 209.381 180.346 211.458C181.28 213.326 182.532 215.044 182.69 217.062C182.849 219.079 181.841 221.022 181.514 223.039C180.85 227.149 182.989 231.128 185.053 234.714C184.937 233.725 185.024 232.722 185.31 231.768C185.596 230.814 186.074 229.928 186.716 229.166C187.902 227.588 189.415 226.29 190.676 224.776C193.614 221.11 195.034 216.457 194.646 211.775ZM190.91 206.124C190.694 206.468 190.391 206.749 190.032 206.937C189.854 207.029 189.655 207.071 189.456 207.058C189.257 207.044 189.065 206.977 188.902 206.862C188.698 206.666 188.542 206.427 188.444 206.162C188.256 205.764 188.09 205.355 187.949 204.938C187.684 204.055 187.639 203.121 187.816 202.216C187.993 201.311 188.388 200.463 188.967 199.745V199.689C189.309 199.672 189.651 199.735 189.965 199.875C190.278 200.014 190.554 200.226 190.77 200.492C191.45 201.267 191.825 202.263 191.825 203.294C191.821 204.31 191.501 205.299 190.91 206.124Z" fill="#455A64"/>
<path d="M185.166 204.957C185.141 204.765 185.141 204.57 185.166 204.378C185.166 203.995 185.278 203.444 185.371 202.725C185.652 200.7 186.042 198.692 186.538 196.71C187.248 193.745 188.38 190.899 189.901 188.257C191.746 184.961 194.511 182.274 197.859 180.524C199.544 179.666 201.39 179.17 203.279 179.069C205.167 178.968 207.056 179.263 208.824 179.935C211.632 181.232 213.95 183.396 215.436 186.109C216.458 187.884 217.332 189.739 218.052 191.657C218.304 192.329 218.5 192.862 218.621 193.217C218.697 193.396 218.75 193.584 218.78 193.777C218.672 193.615 218.587 193.439 218.528 193.254C218.351 192.862 218.136 192.32 217.865 191.731C217.088 189.855 216.173 188.038 215.128 186.296C213.649 183.686 211.379 181.612 208.646 180.374C206.938 179.737 205.116 179.463 203.296 179.567C201.476 179.672 199.698 180.153 198.073 180.981C194.825 182.682 192.129 185.274 190.303 188.453C188.787 191.054 187.637 193.851 186.884 196.766C186.212 199.241 185.838 201.305 185.567 202.715C185.446 203.388 185.352 203.93 185.268 204.35C185.255 204.555 185.22 204.759 185.166 204.957Z" fill="#263238"/>
<path d="M139.67 145.76C136.717 146.438 133.963 147.793 131.623 149.719C129.284 151.645 127.425 154.088 126.193 156.856C124.983 159.676 124.427 162.733 124.568 165.799C124.708 168.864 125.542 171.858 127.005 174.555C128.602 172.267 129.434 169.53 130.741 167.083C132.049 164.636 133.982 162.208 136.672 161.638C138.923 161.171 141.137 161.162 143.369 160.62C145.8 160.049 147.936 158.607 149.375 156.566C150.972 154.428 153.064 153.241 154.661 151.112C151.485 146.32 145.153 144.593 139.67 145.76ZM132.992 158.836C132.899 159.053 132.751 159.243 132.563 159.387C132.351 159.517 132.101 159.571 131.854 159.539C131.607 159.506 131.379 159.39 131.208 159.21C131.041 159.018 130.927 158.787 130.878 158.537C130.829 158.288 130.846 158.03 130.928 157.79C131.05 157.407 131.386 157.052 131.769 157.127L131.629 157.36C131.704 157.256 131.803 157.171 131.917 157.113C132.032 157.054 132.159 157.024 132.287 157.024C132.416 157.024 132.542 157.054 132.657 157.113C132.771 157.171 132.87 157.256 132.946 157.36C133.083 157.58 133.16 157.833 133.168 158.092C133.176 158.351 133.116 158.608 132.992 158.836ZM144.396 156.529C143.707 157.385 142.726 157.957 141.641 158.136C140.574 158.296 139.487 158.271 138.428 158.061C137.937 158.016 137.468 157.835 137.074 157.538C136.844 157.319 136.687 157.036 136.624 156.725C136.56 156.414 136.593 156.092 136.719 155.801C136.763 155.694 136.838 155.603 136.934 155.539C137.054 155.474 137.192 155.451 137.326 155.474C138.186 155.612 139.067 155.502 139.867 155.156C140.44 154.716 140.927 154.175 141.305 153.559C141.615 153.129 142.048 152.803 142.547 152.625C142.485 152.637 142.422 152.637 142.36 152.625H142.771C142.861 152.611 142.952 152.611 143.042 152.625C143.192 152.584 143.345 152.556 143.5 152.541C143.781 152.559 144.051 152.657 144.279 152.822C144.507 152.987 144.684 153.214 144.789 153.475C144.993 153.974 145.064 154.518 144.996 155.054C144.927 155.589 144.72 156.097 144.396 156.529Z" fill="#455A64"/>
<path d="M135.43 153.466C135.526 153.347 135.635 153.24 135.757 153.148C136.082 152.856 136.421 152.582 136.775 152.326C138.096 151.397 139.543 150.661 141.071 150.141C143.349 149.361 145.759 149.043 148.16 149.207C151.117 149.361 153.986 150.26 156.501 151.822C158.972 153.432 161.076 155.545 162.675 158.023C163.97 160.032 165.064 162.162 165.944 164.384C166.691 166.252 167.205 167.84 167.522 168.923C167.69 169.465 167.803 169.857 167.877 170.184C167.924 170.33 167.955 170.48 167.971 170.632C167.72 170.1 167.508 169.551 167.336 168.989C166.962 167.924 166.402 166.383 165.608 164.524C164.698 162.344 163.585 160.255 162.283 158.285C160.704 155.877 158.644 153.822 156.23 152.251C153.785 150.736 151.003 149.851 148.132 149.674C145.784 149.506 143.426 149.789 141.184 150.505C139.129 151.201 137.19 152.199 135.43 153.466Z" fill="#263238"/>
<path d="M281.05 132.703C282.391 133.548 283.886 134.121 285.448 134.389C287.011 134.656 288.611 134.613 290.156 134.262C292.734 133.665 295.247 132.189 297.853 132.647C299.87 132.992 301.589 134.468 303.653 134.515C306.455 134.617 308.762 132.105 311.554 131.815C313.422 131.61 315.29 132.479 317.018 133.319C317.513 131.283 316.028 129.359 314.655 127.809C311.853 124.698 308.836 121.42 304.82 120.467C300.393 119.421 295.845 121.401 291.296 121.401C290.233 121.326 289.166 121.364 288.111 121.513C286.364 121.896 284.945 123.176 283.628 124.409C282.375 125.379 281.407 126.67 280.826 128.145C280.415 129.546 280.714 131.068 280.349 132.479" fill="#455A64"/>
<path d="M307.632 127.426C307.632 127.426 306.912 127.201 305.614 126.875C303.782 126.403 301.902 126.14 300.01 126.09C297.201 126.01 294.395 126.353 291.688 127.108C288.363 128.018 285.209 129.462 282.348 131.386C277.193 134.956 272.788 139.503 269.384 144.77C268.295 146.325 267.399 148.006 266.713 149.776C266.255 151.037 266.143 151.775 266.097 151.766C266.089 151.584 266.105 151.402 266.143 151.224C266.235 150.711 266.363 150.206 266.526 149.711C267.148 147.893 268.009 146.165 269.085 144.574C272.437 139.195 276.856 134.561 282.068 130.956C284.974 129.011 288.18 127.557 291.557 126.65C294.295 125.91 297.13 125.595 299.963 125.716C301.881 125.794 303.782 126.108 305.623 126.65C306.122 126.797 306.611 126.972 307.09 127.173C307.283 127.228 307.466 127.313 307.632 127.426Z" fill="#263238"/>
<path d="M381.726 350.25L386.293 367.37C386.293 367.37 370.415 377.756 370.957 380.997L404.422 373.338L398.416 346.374L381.726 350.25Z" fill="#FF955E"/>
<path d="M396.315 363.541C396.66 363.566 396.984 363.716 397.225 363.964C397.466 364.212 397.607 364.54 397.622 364.886C397.611 365.232 397.466 365.561 397.22 365.804C396.973 366.047 396.643 366.186 396.296 366.193C395.93 366.166 395.587 366.004 395.333 365.738C395.08 365.472 394.934 365.122 394.923 364.755C394.974 364.396 395.163 364.071 395.448 363.849C395.734 363.626 396.095 363.522 396.455 363.56" fill="#E0E0E0"/>
<g opacity="0.6">
<path opacity="0.6" d="M404.422 373.338L403.712 370.649L371.853 378.989C371.853 378.989 370.508 379.979 370.919 380.988L404.422 373.338Z" fill="white"/>
</g>
<path d="M385.742 367.314C385.789 367.473 386.62 367.361 387.545 367.706C388.469 368.052 389.058 368.64 389.198 368.538C389.338 368.435 388.871 367.548 387.741 367.155C386.611 366.763 385.639 367.174 385.742 367.314Z" fill="#263238"/>
<path d="M382.52 369.565C382.52 369.733 383.295 369.855 384.005 370.415C384.715 370.975 385.051 371.676 385.21 371.639C385.368 371.601 385.266 370.639 384.36 369.957C383.454 369.276 382.492 369.416 382.52 369.565Z" fill="#263238"/>
<path d="M381.483 374.235C381.642 374.235 381.688 373.366 381.063 372.563C380.437 371.76 379.587 371.583 379.55 371.732C379.512 371.881 380.101 372.255 380.596 372.918C381.091 373.581 381.324 374.254 381.483 374.235Z" fill="#263238"/>
<path d="M385.098 363.326C385.2 363.457 385.901 363.064 386.844 362.915C387.787 362.766 388.572 362.915 388.619 362.728C388.665 362.541 387.843 362.149 386.751 362.336C385.658 362.523 384.995 363.186 385.098 363.326Z" fill="#263238"/>
<path d="M343.871 147.133L327.199 205.713L340.294 208.273L348.942 178.74L343.871 147.133Z" fill="#F5F5F5"/>
<path d="M343.871 147.133C344.16 148.88 346.019 159.985 349.148 178.702V178.796C346.645 187.37 343.703 197.476 340.536 208.338L340.471 208.562L340.247 208.515L334.643 207.423L327.171 205.966L326.9 205.91L326.975 205.648C331.691 189.07 335.978 174.359 339.033 163.88C341.965 153.774 343.544 148.338 343.889 147.133C343.544 148.357 342.021 153.904 339.126 164.207C336.184 174.77 332.14 189.35 327.47 205.788L327.274 205.471L334.746 206.928L340.35 208.02L340.06 208.198C343.254 197.345 346.224 187.239 348.737 178.684V178.777C345.851 160.013 344.142 148.889 343.871 147.133Z" fill="#E0E0E0"/>
<path d="M419.581 247.687C419.581 247.687 418.376 252.6 411.315 253.553C390.038 256.42 377.401 272.551 377.401 272.551L382.94 254.58L403.432 240.299L416.508 244.418L419.581 247.687Z" fill="#E0E0E0"/>
<path d="M391.197 290.007C387.647 275.81 385.107 268.189 385.107 268.189C385.107 268.189 385.508 207.722 385.107 202.697C384.126 190.555 377.289 176.638 376.402 174.863L342.666 182.774L344.833 199.586L353.323 273.503L382.52 358.086L402.554 354.976C402.554 354.976 394.746 304.204 391.197 290.007Z" fill="#263238"/>
<path d="M359.59 108.344L360.823 108.624L373.338 111.426C373.338 111.426 376 143.369 376.449 147.357C376.897 151.345 371.349 159.34 371.349 159.34C371.349 159.34 376.449 162.441 377.822 166.439C379.195 170.436 377.822 177.236 377.822 177.236L370.172 183.998C367.059 186.774 363.329 188.769 359.291 189.817L343.413 193.917C343.413 193.917 341.545 159.07 336.716 145.106C333.485 135.766 342.32 115.769 342.32 115.769L353.248 108.297" fill="#FF955E"/>
<path d="M351.894 141.034C349.305 141.417 346.693 141.632 344.076 141.678C341.467 141.893 338.846 141.936 336.231 141.809C338.82 141.426 341.431 141.211 344.048 141.165C346.658 140.956 349.279 140.913 351.894 141.034Z" fill="white"/>
<path d="M354.191 158.78C351.92 159.26 349.616 159.572 347.299 159.714C344.995 160.013 342.673 160.147 340.35 160.116C342.624 159.633 344.931 159.321 347.252 159.182C349.552 158.88 351.872 158.746 354.191 158.78Z" fill="white"/>
<path d="M357.171 178.525C356.566 178.936 355.901 179.251 355.2 179.459C351.886 180.67 348.349 181.145 344.833 180.85C344.101 180.838 343.376 180.708 342.685 180.467C345.135 180.542 347.587 180.458 350.026 180.215C354.051 179.692 357.115 178.394 357.171 178.525Z" fill="white"/>
<path d="M339.117 98.07C336.987 97.08 335.652 94.8944 334.867 92.6808C334.082 90.4673 333.718 88.1042 332.85 85.928C332.196 84.2935 332.915 81.7063 331.449 80.735C329.581 79.5208 329.637 76.3078 330.346 74.7107C331.112 72.9641 333.204 71.6658 333.345 71.1054C333.718 69.6577 332.411 68.0886 332.915 66.6596C334.017 63.3159 336.744 63.7549 336.744 63.7549C337.987 62.2511 339.668 60.2617 342.348 59.5519C345.309 58.7953 349.662 58.2256 352.295 59.776C354.929 61.3265 356.863 62.3539 357.713 65.2866" fill="#263238"/>
<path d="M361.869 69.3868C362.617 69.4684 363.307 69.8273 363.803 70.3927C364.299 70.9581 364.566 71.6889 364.55 72.441L362.756 113.014C362.682 117.805 355.686 120.486 350.558 120.374C345.374 120.252 345.216 117.712 345.15 113.163C345.038 105.551 345.048 102.693 345.048 102.74C345.048 102.787 338.51 101.638 337.174 93.1011C336.511 88.8514 336.735 81.8931 337.109 76.205C337.435 71.0867 340.845 64.8102 345.944 65.3613L361.869 69.3868Z" fill="#D38D6E"/>
<path d="M338.771 81.9958C338.764 82.285 338.87 82.5656 339.067 82.7771C339.265 82.9885 339.538 83.1138 339.827 83.126C340.1 83.1495 340.371 83.0648 340.583 82.8901C340.794 82.7154 340.928 82.4647 340.957 82.192C340.959 81.906 340.851 81.6301 340.654 81.4227C340.457 81.2153 340.187 81.0926 339.901 81.0805C339.631 81.0567 339.362 81.1389 339.151 81.3097C338.94 81.4804 338.804 81.7265 338.771 81.9958Z" fill="#263238"/>
<path d="M338.603 79.7916C338.743 79.941 339.537 79.3246 340.751 79.3339C341.965 79.3433 342.787 79.9317 342.918 79.7823C343.049 79.6328 342.843 79.4647 342.47 79.1845C341.961 78.8299 341.353 78.6438 340.733 78.6521C340.12 78.6492 339.522 78.8387 339.023 79.1938C338.668 79.474 338.538 79.7262 338.603 79.7916Z" fill="#263238"/>
<path d="M350.157 81.9958C350.149 82.2804 350.251 82.5571 350.443 82.7677C350.634 82.9784 350.9 83.1068 351.184 83.126C351.458 83.152 351.731 83.0682 351.942 82.893C352.154 82.7179 352.288 82.4657 352.314 82.192C352.317 81.906 352.208 81.6301 352.011 81.4227C351.814 81.2153 351.544 81.0926 351.259 81.0805C350.993 81.0642 350.731 81.1498 350.526 81.3199C350.322 81.49 350.189 81.7317 350.157 81.9958Z" fill="#263238"/>
<path d="M350.185 80.0344C350.315 80.1839 351.119 79.5674 352.323 79.5768C353.528 79.5861 354.369 80.1745 354.5 80.0251C354.63 79.8757 354.425 79.7075 354.042 79.4367C353.537 79.0789 352.933 78.8894 352.314 78.895C351.701 78.8901 351.103 79.0798 350.605 79.4367C350.25 79.7169 350.119 79.9784 350.185 80.0344Z" fill="#263238"/>
<path d="M345.888 88.73C345.268 88.528 344.625 88.4087 343.974 88.3751C343.675 88.3751 343.394 88.2817 343.338 88.0762C343.306 87.7509 343.378 87.4238 343.544 87.1422C343.833 86.4137 344.123 85.6571 344.478 84.8539C345.306 82.9151 345.978 80.9131 346.486 78.8669C345.505 80.7345 344.674 82.6771 344.002 84.6764C343.703 85.4797 343.413 86.2455 343.142 86.9834C342.955 87.3456 342.899 87.7614 342.983 88.1602C343.026 88.2669 343.093 88.3621 343.179 88.4383C343.265 88.5145 343.367 88.5696 343.478 88.5992C343.646 88.6437 343.819 88.6688 343.992 88.6739C344.62 88.7688 345.256 88.7876 345.888 88.73Z" fill="#263238"/>
<path d="M345.048 102.74C349.065 102.81 353.023 101.762 356.48 99.7139C356.48 99.7139 353.584 105.729 345.048 104.916V102.74Z" fill="#B26746"/>
<path d="M346.383 91.6067C346.604 91.3298 346.891 91.1128 347.217 90.9757C347.543 90.8386 347.899 90.7858 348.251 90.8221C348.511 90.8458 348.763 90.9217 348.993 91.0453C349.222 91.1689 349.424 91.3376 349.587 91.5413C349.744 91.7374 349.837 91.9775 349.852 92.2285C349.867 92.4794 349.804 92.7288 349.671 92.9423C349.483 93.1541 349.235 93.3046 348.96 93.3745C348.686 93.4444 348.397 93.4305 348.13 93.3346C347.572 93.1252 347.061 92.8078 346.626 92.4006C346.496 92.3046 346.382 92.1879 346.29 92.055C346.248 91.9893 346.226 91.9132 346.226 91.8355C346.226 91.7578 346.248 91.6817 346.29 91.616" fill="#B26746"/>
<path d="M349.316 89.5893C349.129 89.5893 349.12 90.8501 348.027 91.7561C346.934 92.6621 345.571 92.522 345.561 92.6901C345.552 92.8582 345.86 92.933 346.439 92.9516C347.186 92.9618 347.913 92.7107 348.494 92.2418C348.777 92.0132 349.012 91.7301 349.183 91.4092C349.355 91.0883 349.46 90.7362 349.493 90.3738C349.587 89.8975 349.437 89.5799 349.316 89.5893Z" fill="#263238"/>
<path d="M349.736 76.121C349.848 76.4386 351.025 76.2891 352.408 76.4572C353.79 76.6254 354.901 77.0083 355.088 76.7188C355.172 76.588 354.976 76.2891 354.528 75.9716C353.929 75.5841 353.247 75.3441 352.538 75.2711C351.832 75.1829 351.114 75.2662 350.446 75.5139C349.942 75.7194 349.68 75.9716 349.736 76.121Z" fill="#263238"/>
<path d="M338.369 76.588C338.575 76.8589 339.388 76.588 340.368 76.588C341.349 76.588 342.171 76.7748 342.358 76.4946C342.442 76.3638 342.311 76.093 341.956 75.8408C341.473 75.5281 340.906 75.3715 340.331 75.3925C339.757 75.3979 339.2 75.5878 338.743 75.9342C338.398 76.177 338.285 76.4479 338.369 76.588Z" fill="#263238"/>
<path d="M357.18 64.6889C357.185 65.5462 357 66.394 356.639 67.1719C356.279 67.9497 355.751 68.6383 355.093 69.1887C354.436 69.7391 353.665 70.1376 352.836 70.3559C352.007 70.5742 351.14 70.6069 350.297 70.4516C348.989 70.2181 347.56 69.5176 346.43 70.2555C345.3 70.9934 345.197 72.768 344.142 73.6833C342.638 74.9909 340.247 73.7673 338.341 74.3371C336.866 74.7667 335.941 76.2051 334.96 77.3632C333.98 78.5214 332.513 79.6796 331.038 79.2312C331.078 77.9019 331.276 76.5821 331.626 75.2991C331.976 74.0047 332.765 72.8722 333.858 72.0955C334.465 71.6939 335.175 71.451 335.726 70.9934C336.95 70.0033 337.23 68.2847 337.987 66.9024C338.485 66.0159 339.187 65.2606 340.035 64.6988C340.882 64.1369 341.851 63.7845 342.862 63.6708C344.543 63.5027 346.271 64.007 347.906 63.5867C349.12 63.2879 350.175 62.5033 351.399 62.2698C353.79 61.8121 356.003 63.5307 357.741 65.2306" fill="#263238"/>
<path d="M361.673 83.182C361.877 83.2625 362.046 83.4122 362.151 83.6049C362.255 83.7975 362.289 84.0209 362.246 84.2359C362.202 84.4509 362.084 84.6437 361.913 84.7806C361.742 84.9175 361.528 84.9897 361.309 84.9847C358.441 85.6385 358.068 80.0345 358.703 78.4467C357.632 77.5554 356.676 76.5359 355.854 75.4112C354.941 73.6169 354.488 71.6237 354.537 69.611C353.5 69.6764 349.101 68.2194 349.568 68.0886C350.642 67.7804 352.828 67.0892 353.407 66.1552C353.983 65.1575 354.812 64.3297 355.811 63.7556C356.81 63.1816 357.943 62.8816 359.095 62.8862C360.256 62.9796 361.356 63.4455 362.232 64.2146C363.107 64.9837 363.71 66.0149 363.952 67.1546C365.347 67.2028 366.704 67.6275 367.878 68.3839C369.052 69.1402 370 70.2 370.621 71.451C371.27 72.7652 371.588 74.2187 371.546 75.6842C371.503 77.1497 371.102 78.5825 370.378 79.857C369.916 80.4594 369.617 81.1701 369.509 81.9211C369.509 82.8551 370.2 83.621 370.695 84.4056C371.319 85.5354 371.664 86.7983 371.7 88.0886C371.735 89.3788 371.461 90.6589 370.901 91.8215C369.855 94.1565 369.117 94.9691 367.632 95.4455C364.718 96.3795 368.099 102.348 363.251 102.348" fill="#263238"/>
<path d="M361.561 85.5263C361.577 85.1073 361.699 84.6992 361.915 84.3397C362.131 83.9802 362.434 83.6809 362.796 83.4695C363.158 83.2582 363.568 83.1416 363.987 83.1305C364.406 83.1194 364.821 83.2142 365.194 83.4062C366.053 83.9105 366.716 84.9099 366.632 86.8433C366.427 91.9803 361.309 90.7101 361.299 90.5793C361.29 90.4485 361.458 87.6559 361.561 85.5263Z" fill="#D38D6E"/>
<path d="M362.962 88.6739C362.962 88.6739 363.046 88.7487 363.195 88.8234C363.412 88.9069 363.651 88.9069 363.868 88.8234C364.208 88.6278 364.49 88.3444 364.684 88.0027C364.878 87.661 364.977 87.2735 364.97 86.8807C365.003 86.4387 364.936 85.9949 364.774 85.5824C364.733 85.4203 364.653 85.2707 364.54 85.1469C364.428 85.0231 364.287 84.9289 364.129 84.8726C364.028 84.8392 363.919 84.8435 363.821 84.8847C363.723 84.926 363.643 85.0013 363.597 85.0967C363.522 85.2368 363.55 85.3396 363.522 85.3489C363.494 85.3582 363.41 85.2555 363.466 85.05C363.494 84.9204 363.571 84.8066 363.681 84.7325C363.825 84.6319 364.003 84.5917 364.176 84.6204C364.392 84.6657 364.592 84.7674 364.756 84.915C364.92 85.0626 365.042 85.251 365.11 85.461C365.311 85.9123 365.398 86.4064 365.362 86.8993C365.37 87.3588 365.241 87.8101 364.991 88.1959C364.742 88.5818 364.383 88.8847 363.961 89.0662C363.822 89.1027 363.676 89.1065 363.535 89.0774C363.394 89.0482 363.262 88.9868 363.149 88.8981C362.971 88.8047 362.943 88.73 362.962 88.6739Z" fill="#B26746"/>
<path d="M369.192 81.5289C369.192 81.5289 369.36 81.2487 369.602 80.707C369.928 79.9531 370.085 79.1368 370.06 78.3159C370.027 77.1019 369.556 75.9409 368.734 75.0469C368.268 74.5176 367.699 74.0887 367.062 73.786C366.359 73.4805 365.605 73.3125 364.839 73.291C363.251 73.2163 361.701 73.4591 360.272 73.291C359.008 73.1557 357.804 72.6813 356.788 71.918C356.106 71.4085 355.526 70.7747 355.079 70.05C354.9 69.7947 354.767 69.5103 354.687 69.2094C355.268 70.182 356.036 71.0296 356.947 71.7032C357.939 72.4085 359.098 72.8431 360.309 72.9641C361.682 73.1135 363.214 72.8614 364.858 72.9641C365.673 72.9867 366.475 73.1675 367.221 73.4965C367.91 73.8125 368.524 74.2709 369.023 74.8414C369.741 75.6421 370.196 76.6431 370.328 77.7099C370.46 78.7768 370.262 79.8584 369.761 80.8097C369.624 81.0866 369.43 81.3316 369.192 81.5289Z" fill="#455A64"/>
<path d="M369.191 70.134C368.551 69.755 367.825 69.5431 367.081 69.5176C366.278 69.5102 365.481 69.6462 364.727 69.9192C363.858 70.1994 362.934 70.6291 361.925 70.956C360.943 71.2886 359.895 71.3783 358.871 71.2175C358.033 71.0706 357.235 70.7527 356.526 70.2835C356.053 69.9785 355.628 69.6038 355.266 69.172C355.12 69.0251 355.006 68.8504 354.929 68.6583C355.449 69.1764 356.019 69.6424 356.629 70.05C357.327 70.4516 358.094 70.7207 358.889 70.8439C359.861 70.9699 360.848 70.8709 361.776 70.5543C362.784 70.2461 363.718 69.8165 364.578 69.5456C365.378 69.2805 366.22 69.1665 367.062 69.2094C367.633 69.2471 368.189 69.4131 368.687 69.6951C369.061 69.9379 369.201 70.1154 369.191 70.134Z" fill="#455A64"/>
<path d="M334.661 66.1179C334.823 66.4149 335.021 66.6909 335.25 66.9398C335.588 67.2429 335.984 67.4739 336.415 67.6184C336.845 67.763 337.301 67.8181 337.753 67.7804C339.105 67.5981 340.354 66.9587 341.293 65.9684C342.451 64.9504 343.581 63.5587 345.29 62.7368C346.124 62.3403 347.057 62.1975 347.971 62.3258C348.814 62.4638 349.617 62.7824 350.325 63.2598C351.508 64.0489 352.472 65.1255 353.127 66.3887C353.579 67.2148 353.969 68.0733 354.294 68.9572C354.437 69.2741 354.544 69.6063 354.612 69.9473C354.429 69.6516 354.276 69.3387 354.154 69.0133C353.781 68.1592 353.36 67.3266 352.893 66.5195C352.236 65.306 351.289 64.2731 350.138 63.512C349.468 63.0806 348.713 62.7972 347.924 62.6807C347.079 62.5699 346.219 62.7061 345.449 63.073C343.852 63.8296 342.722 65.1839 341.536 66.2113C340.541 67.2434 339.222 67.9029 337.8 68.0793C337.315 68.1027 336.832 68.0241 336.379 67.8488C335.927 67.6734 335.517 67.4051 335.175 67.0612C334.997 66.8689 334.857 66.6436 334.764 66.3981C334.712 66.3123 334.677 66.2171 334.661 66.1179Z" fill="#455A64"/>
<path d="M352.417 60.9808C352.828 61.2109 353.182 61.5301 353.454 61.9148C354.159 62.8097 354.65 63.8539 354.889 64.9676C355.129 66.0814 355.111 67.2351 354.836 68.3408C354.753 68.8039 354.564 69.2418 354.285 69.6203C354.349 69.1663 354.442 68.717 354.565 68.2754C354.76 67.205 354.741 66.1067 354.509 65.0437C354.275 63.9814 353.841 62.9734 353.229 62.0736C352.937 61.726 352.666 61.3611 352.417 60.9808Z" fill="#455A64"/>
<path d="M268.478 54.9752C268.478 54.9752 261.445 58.0107 262.024 63.4746C262.441 67.0201 263.21 70.5151 264.322 73.9074C264.322 73.9074 253.273 65.5014 242.466 68.9012L242.401 71.4043C242.401 71.4043 250.153 70.4703 256.794 74.1316C263.435 77.7928 272.14 90.9436 272.14 90.9436L293.967 81.1459L288.802 72.7399C288.802 72.7399 289.531 64.7542 289.652 62.5313C289.83 59.1315 285.645 45.9808 268.478 54.9752ZM286.85 60.5045C287.074 62.4472 285.43 65.3706 285.43 65.3706L283.142 60.0188L265.807 66.0058C265.807 66.0058 262.687 60.8314 269.02 57.4503C272.756 55.4609 276.819 55.2648 279.471 55.1433C280.704 55.0617 281.937 55.2919 283.057 55.8127C284.176 56.3334 285.147 57.1279 285.879 58.1228C286.397 58.8229 286.731 59.6418 286.85 60.5045Z" fill="#FF955E"/>
<path d="M289.54 51.4447L280.088 51.0244L272.336 54.3868C272.336 54.3868 272.691 55.601 273.428 55.5076C274.908 55.2044 276.362 54.7924 277.781 54.2747L275.306 56.4416L275.203 58.0294C275.203 58.0294 277.641 61.0089 278.07 60.6913C278.437 60.2875 278.726 59.8187 278.92 59.309L280.62 61.7467H283.273L284.487 60.1122L285.804 61.1583C285.804 61.1583 289.12 64.1564 291.016 63.4653C292.118 63.0637 294.135 68.0139 294.135 68.0139L301.29 63.512L296.48 57.5718L289.54 51.4447Z" fill="#D38D6E"/>
<path d="M286.215 54.4148C285.681 54.5693 285.127 54.6449 284.571 54.639L282.806 54.7417C282.489 54.7548 282.175 54.8081 281.872 54.9005C281.55 55.0664 281.238 55.2503 280.938 55.4516C280.303 55.8719 279.714 56.3108 279.191 56.7218C278.668 57.1328 278.257 57.4783 278.379 57.9267C278.64 58.8607 279.07 59.3557 278.995 59.4024C278.92 59.4491 278.425 59.0381 278.061 58.0201C278.006 57.8649 277.989 57.6984 278.014 57.5355C278.038 57.3725 278.103 57.2181 278.201 57.0861C278.412 56.822 278.654 56.5838 278.92 56.3762C279.481 55.8979 280.07 55.455 280.686 55.0499C281.01 54.819 281.358 54.6219 281.722 54.4615C282.078 54.3447 282.45 54.2879 282.824 54.2934H284.627C285.159 54.2477 285.696 54.2888 286.215 54.4148Z" fill="#B26746"/>
<path d="M283.273 61.8308C283.207 61.8308 283.45 61.3264 283.852 60.6259C283.955 60.4485 284.057 60.2523 284.16 60.0469C284.204 59.9581 284.235 59.8639 284.254 59.7667C284.254 59.7667 284.254 59.7667 284.254 59.7106C284.234 59.6698 284.209 59.6321 284.179 59.5985C283.982 59.4551 283.745 59.3778 283.502 59.3778C283.258 59.3778 283.021 59.4551 282.825 59.5985L282.432 59.7947L282.133 59.9441L282.059 59.5985L281.863 58.6645C281.788 58.3843 281.648 58.1695 281.498 58.1322L280.854 58.0014L281.452 57.7305C282.04 57.4597 282.535 57.2449 282.89 57.1141C283.032 57.0554 283.179 57.0086 283.329 56.974C283.45 56.974 283.506 56.974 283.497 57.0394C283.327 57.1297 283.161 57.2295 283.002 57.3383C282.684 57.5437 282.208 57.8053 281.638 58.1228L281.592 57.7119C281.773 57.7699 281.936 57.8748 282.064 58.0158C282.192 58.1568 282.28 58.329 282.32 58.5151C282.404 58.8607 282.479 59.1969 282.563 59.5518L282.189 59.3557L282.61 59.1409C282.917 58.9869 283.256 58.907 283.6 58.9074C283.777 58.9111 283.951 58.9511 284.111 59.025C284.272 59.099 284.416 59.2052 284.534 59.337C284.592 59.4003 284.639 59.4729 284.674 59.5518C284.696 59.5904 284.715 59.6311 284.73 59.6733C284.744 59.7379 284.744 59.8048 284.73 59.8694C284.7 60.0142 284.646 60.153 284.571 60.2804C284.457 60.4831 284.333 60.6795 284.198 60.8688C283.665 61.4852 283.329 61.8588 283.273 61.8308Z" fill="#B26746"/>
<path d="M285.804 52.3881C284.084 52.6314 282.346 52.7159 280.611 52.6402L280.788 52.5749C280.62 52.7243 280.452 52.8737 280.275 53.0138C279.004 54.0319 277.818 54.8818 276.959 55.4983C276.515 55.8708 276.026 56.1847 275.502 56.4323C275.39 56.3015 277.426 54.6297 279.948 52.6402L280.443 52.2293L280.518 52.1546H280.611C282.345 52.0784 284.083 52.1565 285.804 52.3881Z" fill="#B26746"/>
<path d="M239.394 71.451C235.831 71.5275 232.357 72.5731 229.344 74.4753C226.331 76.3776 223.893 79.0647 222.292 82.248C221.471 83.6786 221.143 85.339 221.358 86.9741C221.694 88.5712 223.142 90.0283 224.767 89.8695C225.328 89.771 225.865 89.5627 226.346 89.2566C226.827 88.9505 227.242 88.5526 227.569 88.0855C229.736 85.433 230.577 81.9772 231.856 78.7455C233.136 75.5139 235.219 72.329 238.506 71.3856" fill="#F5F5F5"/>
<path d="M239.655 86.4324C239.345 85.4019 238.964 84.3939 238.516 83.4155C237.818 81.6821 237.338 79.8687 237.087 78.017L236.638 78.4373C234.716 81.0936 233.889 84.3881 234.331 87.6372C234.411 88.4166 234.652 89.1707 235.041 89.8508C235.239 90.1901 235.509 90.4821 235.832 90.7063C236.154 90.9306 236.522 91.0817 236.909 91.1491C237.447 91.188 237.985 91.0601 238.448 90.7826C238.911 90.5052 239.277 90.0917 239.496 89.5986C239.917 88.594 239.973 87.474 239.655 86.4324Z" fill="#F5F5F5"/>
<path d="M230.016 94.1378C228.847 94.824 227.797 95.6945 226.906 96.7157C226.465 97.2338 226.155 97.8509 226.004 98.5145C225.853 99.178 225.864 99.8682 226.037 100.526C226.246 101.17 226.698 101.706 227.296 102.02C227.895 102.334 228.593 102.402 229.241 102.208C230.661 101.61 230.959 99.7325 230.707 98.2194C230.455 96.7063 229.857 95.1746 230.259 93.6895" fill="#F5F5F5"/>
<path d="M381.259 174.863L381.184 174.742L381.259 174.863L374.431 157.846L376.598 149.645L373.292 111.464L364.55 106.196L364.129 102.796L361.729 103.198L357.722 106.812L324.668 92.1017L303.064 62.3258L292.79 68.4902L312.628 106.102L350.091 127.482L350.016 127.734C350.353 127.93 366.548 262.342 373.479 262.744C380.409 263.145 392.28 245.539 406.29 245.128C415.359 244.867 418.516 246.511 419.628 247.687C414.761 238.516 382.006 176.18 381.259 174.863Z" fill="#F5F5F5"/>
<path d="M381.259 174.863C381.259 174.863 381.502 175.293 381.959 176.134L383.958 179.87L391.626 194.337C398.276 206.918 407.878 225.113 419.74 247.575L420.319 248.668L419.441 247.781C418.336 246.816 416.99 246.17 415.546 245.913C414.068 245.59 412.565 245.39 411.053 245.315C407.999 245.194 404.814 245.072 401.713 245.988C398.615 246.978 395.685 248.436 393.027 250.312C390.225 252.18 387.61 254.253 384.939 256.411C383.594 257.494 382.239 258.587 380.829 259.633C379.425 260.733 377.902 261.673 376.29 262.435C375.445 262.82 374.528 263.021 373.6 263.024C373.323 263.017 373.058 262.911 372.853 262.725C372.679 262.556 372.526 262.368 372.395 262.164C372.142 261.778 371.92 261.372 371.732 260.95C371.019 259.264 370.429 257.529 369.967 255.757C368.033 248.677 366.642 241.271 365.241 233.687C362.513 218.5 360.094 202.519 357.703 185.95C355.312 169.381 353.033 152.223 350.745 134.655C350.586 133.515 350.437 132.376 350.287 131.236L350.054 129.527L349.932 128.677L349.867 128.257V128.051V127.949V127.902C349.888 127.947 349.925 127.983 349.97 128.005L349.858 127.706L349.932 127.454L350.054 127.743L312.591 106.364H312.526V106.299L292.604 68.5929L292.501 68.3968L292.697 68.2847L302.971 62.1297L303.158 62.0176L303.279 62.195L324.845 91.9803L324.761 91.9056L357.834 106.644L357.573 106.85V106.747L357.647 106.672L361.626 103.02H361.682L364.083 102.628H364.26V102.815L364.671 106.205L364.587 106.084L373.329 111.351L373.423 111.482C374.73 126.865 375.823 139.717 376.664 149.673V149.72C375.73 153.092 375.094 155.614 374.487 157.911V157.855C376.673 163.366 378.345 167.569 379.475 170.427C380.605 173.285 381.193 174.807 381.231 174.938L381.156 174.817L381.221 174.938L381.147 174.817L381.212 174.938C381.147 174.817 380.521 173.313 379.344 170.464L374.347 157.846V157.79C374.945 155.483 375.608 152.961 376.486 149.589C375.608 139.633 374.478 126.781 373.133 111.407L373.217 111.548L364.465 106.289H364.391V106.205L363.97 102.805L364.176 102.964L361.776 103.366H361.869L357.899 107.027L357.955 106.85L358.03 107.195L357.703 107.055L324.584 92.2979H324.528L302.878 62.4659L303.186 62.5313L292.912 68.6863L292.996 68.3781L312.89 105.981L312.787 105.888L350.25 127.257L350.427 127.36L350.362 127.556L350.287 127.809L350.166 127.519C350.223 127.557 350.266 127.613 350.287 127.678V127.734V127.79V127.902V128.117L350.353 128.546L350.474 129.406L350.708 131.115C350.857 132.254 351.007 133.394 351.165 134.533C353.463 152.102 355.742 169.259 358.114 185.829C360.487 202.398 362.906 218.369 365.586 233.547C366.978 241.121 368.388 248.491 370.256 255.58C370.714 257.328 371.295 259.041 371.994 260.707C372.17 261.107 372.38 261.491 372.619 261.856C372.862 262.202 373.142 262.557 373.479 262.519C374.343 262.521 375.198 262.333 375.982 261.968C377.563 261.231 379.058 260.32 380.437 259.25C381.838 258.204 383.183 257.121 384.528 256.037C387.208 253.88 389.87 251.76 392.663 249.929C395.409 248.046 398.431 246.6 401.62 245.642C403.162 245.203 404.753 244.955 406.355 244.904C407.934 244.904 409.494 244.904 411.025 244.969C412.577 245.062 414.117 245.287 415.63 245.642C417.143 245.902 418.556 246.574 419.712 247.585L419.413 247.8C407.616 225.299 398.061 207.086 391.449 194.487L383.874 179.944C383.015 178.282 382.352 177.021 381.913 176.208C381.474 175.396 381.259 174.863 381.259 174.863Z" fill="#E0E0E0"/>
<path d="M362.943 132.703C362.209 132.845 361.449 132.747 360.776 132.422C359.127 131.845 357.514 131.169 355.947 130.396C354.079 129.462 352.464 128.668 351.277 128.07C350.62 127.795 349.994 127.451 349.409 127.043C350.122 127.185 350.813 127.421 351.464 127.743C352.706 128.257 354.378 129.051 356.218 129.938C358.058 130.825 359.721 131.582 360.954 132.086C361.599 132.346 362.264 132.553 362.943 132.703Z" fill="#263238"/>
<path d="M371.48 120.29C371.357 119.29 371.176 118.298 370.938 117.32C370.246 114.999 368.791 112.978 366.81 111.585C364.765 110.259 362.626 109.082 360.412 108.064C359.472 107.658 358.585 107.14 357.769 106.523C358.723 106.878 359.658 107.284 360.571 107.737C362.856 108.669 365.045 109.82 367.109 111.174C369.183 112.623 370.666 114.772 371.284 117.226C371.473 117.958 371.568 118.712 371.564 119.468C371.583 119.745 371.555 120.023 371.48 120.29Z" fill="#263238"/>
<path d="M372.442 165.832C372.405 164.411 372.575 162.992 372.946 161.619C373.156 160.216 373.578 158.852 374.198 157.575C374.067 158.98 373.814 160.371 373.441 161.731C373.24 163.127 372.905 164.5 372.442 165.832Z" fill="#263238"/>
<path d="M378.438 184.222C378.105 184.829 377.647 185.357 377.093 185.773C375.815 186.862 374.308 187.651 372.685 188.08C371.059 188.508 369.358 188.569 367.706 188.257C367.02 188.172 366.361 187.939 365.773 187.575C365.773 187.491 366.539 187.743 367.772 187.902C371.002 188.312 374.265 187.448 376.869 185.492C377.859 184.745 378.373 184.157 378.438 184.222Z" fill="#263238"/>
<path d="M406.29 234.789C405.863 234.907 405.425 234.979 404.982 235.004C404.562 235.06 404.048 235.106 403.441 235.134C402.834 235.162 402.152 235.209 401.396 235.191C399.611 235.194 397.829 235.069 396.063 234.817C391.728 234.202 387.525 232.877 383.622 230.894C382.03 230.088 380.498 229.171 379.036 228.148C378.401 227.728 377.878 227.289 377.392 226.925C376.906 226.56 376.523 226.224 376.206 225.935C375.864 225.655 375.551 225.342 375.272 225.001C375.328 224.926 376.738 226.168 379.251 227.803C380.723 228.772 382.255 229.649 383.837 230.427C387.718 232.341 391.869 233.648 396.147 234.303C397.888 234.57 399.644 234.732 401.405 234.789C404.422 234.91 406.29 234.695 406.29 234.789Z" fill="#263238"/>
<path d="M419.805 247.846C419.805 247.846 419.674 247.772 419.459 247.603C419.168 247.336 418.856 247.092 418.525 246.875C417.279 246.087 415.899 245.533 414.453 245.24C412.304 244.799 410.103 244.658 407.915 244.82C405.233 244.974 402.584 245.493 400.042 246.361C394.587 248.229 390.524 251.62 387.657 254.011L384.285 256.943C383.892 257.325 383.467 257.672 383.015 257.98C383.362 257.555 383.744 257.159 384.154 256.794C384.911 256.056 386.022 255.001 387.423 253.74C389.072 252.258 390.806 250.873 392.616 249.593C394.844 248.007 397.288 246.749 399.873 245.857C402.46 244.974 405.157 244.459 407.887 244.325C410.115 244.179 412.353 244.362 414.528 244.867C416.001 245.198 417.395 245.817 418.628 246.688C418.967 246.926 419.28 247.198 419.562 247.501C419.73 247.725 419.824 247.837 419.805 247.846Z" fill="#263238"/>
<path d="M384.36 201.613C384.36 201.613 384.36 201.716 384.238 201.893C384.094 202.148 383.932 202.391 383.753 202.622C383.072 203.478 382.227 204.189 381.268 204.714C379.841 205.494 378.221 205.851 376.598 205.742C374.598 205.544 372.72 204.69 371.256 203.313C369.794 201.975 368.643 200.333 367.884 198.503C367.27 197.025 366.807 195.488 366.502 193.917C366.24 192.581 366.091 191.498 365.997 190.751C365.926 190.363 365.895 189.968 365.904 189.574C366.042 189.942 366.139 190.324 366.193 190.713C366.343 191.451 366.548 192.535 366.856 193.842C367.204 195.375 367.692 196.873 368.314 198.316C369.067 200.072 370.184 201.648 371.592 202.94C372.979 204.239 374.747 205.058 376.635 205.275C378.183 205.404 379.737 205.097 381.119 204.387C382.385 203.704 383.49 202.759 384.36 201.613Z" fill="#263238"/>
<path d="M318.671 217.034L300.963 444.369L312.47 444.164L332.392 216.884L318.671 217.034Z" fill="#455A64"/>
<path d="M336.035 216.847L322.548 217.034L389.683 444.108H402.928L336.035 216.847Z" fill="#455A64"/>
<path d="M319.736 321.632H356.919L360.029 330.477H317.214L319.736 321.632Z" fill="#455A64"/>
<path d="M328.88 211.495L317.915 212.709L311.218 216.903C311.218 216.903 311.087 218.266 312.993 218.052L316.729 216.454L313.74 219.723C313.859 219.916 314.018 220.082 314.206 220.208C314.394 220.335 314.607 220.42 314.831 220.458C315.054 220.496 315.283 220.486 315.503 220.429C315.722 220.371 315.927 220.268 316.103 220.125C317.127 219.534 318.03 218.754 318.765 217.827L325.359 217.36C325.359 217.36 320.371 222.152 321.287 223.403C322.202 224.655 322.8 224.384 323.519 223.926C324.238 223.469 324.63 221.89 326.274 221.367C327.918 220.844 330.627 219.313 333.559 217.921C336.081 216.725 338.65 208.17 338.65 208.17L330.244 206.526L328.88 211.495Z" fill="#D38D6E"/>
<path d="M324.518 214.297C322.472 214.855 320.386 215.255 318.279 215.493H318.186L318.326 215.418C316.93 216.972 315.408 218.409 313.777 219.714C315.045 218.048 316.444 216.487 317.962 215.044L318.027 214.979H318.204C320.287 214.581 322.399 214.353 324.518 214.297Z" fill="#B26746"/>
<path d="M422.719 444.108C422.719 444.248 334.428 444.369 225.542 444.369C116.657 444.369 28.3469 444.248 28.3469 444.108C28.3469 443.968 116.619 443.855 225.542 443.855C334.465 443.855 422.719 443.968 422.719 444.108Z" fill="#263238"/>
</svg>
